<svg width="225" height="225" viewBox="0 0 225 225" fill="none" xmlns="http://www.w3.org/2000/svg">
<g clip-path="url(#clip0_14_3260)">
<path d="M212.565 225H1.81472C0.518335 225 -0.358374 223.678 0.1448 222.483C17.7071 180.694 59.021 151.349 107.191 151.349C155.361 151.349 196.674 180.694 214.237 222.483C214.738 223.678 213.861 225 212.565 225H212.565Z" fill="#8CBAFA"/>
<path d="M214.237 222.483C196.674 180.694 155.36 151.35 107.19 151.35C104.834 151.35 102.494 151.422 100.173 151.561C145.31 154.253 183.499 182.738 200.202 222.483C200.705 223.678 199.826 225 198.532 225H212.565C213.861 225 214.738 223.678 214.237 222.483Z" fill="#5692D8"/>
<path d="M151.899 196.926H199.403C197.616 194.592 195.741 192.327 193.782 190.135H149.78C146.725 180.957 143.193 172.792 139.25 165.864C136.586 161.186 133.77 157.147 130.83 153.762C126.891 152.948 122.912 152.339 118.91 151.937C127.908 158.277 136.179 171.675 142.595 190.135H71.7854C78.2018 171.673 86.4724 158.277 95.471 151.937C91.4689 152.34 87.4902 152.949 83.5509 153.762C80.6105 157.147 77.7931 161.186 75.1309 165.864C71.186 172.792 67.655 180.957 64.5995 190.135H20.5992C18.6402 192.327 16.7649 194.592 14.9773 196.926H62.4813C59.9579 205.563 57.8363 214.976 56.1576 225H63.046C64.7902 214.849 66.9958 205.432 69.5776 196.926H144.801C147.385 205.432 149.589 214.849 151.333 225H158.222C156.543 214.976 154.421 205.563 151.899 196.926Z" fill="#E9E9EA"/>
<path d="M196.66 193.483C196.652 193.471 196.64 193.459 196.631 193.447C195.701 192.326 194.751 191.222 193.782 190.135H179.748C181.706 192.327 183.58 194.593 185.366 196.926H199.403C198.933 196.311 198.456 195.701 197.972 195.096C197.539 194.555 197.102 194.017 196.66 193.483ZM130.829 153.762C129.884 153.566 128.935 153.384 127.982 153.211C127.927 153.201 127.874 153.192 127.819 153.182C125.88 152.834 123.933 152.535 121.979 152.287C121.935 152.282 121.891 152.277 121.847 152.272C120.87 152.149 119.891 152.037 118.908 151.937C120.226 152.866 121.528 153.951 122.812 155.175C126.944 156.265 131.013 157.585 134.999 159.128C133.64 157.188 132.249 155.398 130.83 153.762H130.829Z" fill="#C5C4CC"/>
<path d="M171.769 64.5806C171.769 29.0829 143.13 0.274576 107.697 0.00167548C72.566 -0.268149 43.4316 27.9412 42.6269 63.065C41.9814 91.2809 59.4378 115.502 84.1913 124.94C86.2101 125.709 87.8014 127.307 88.6135 129.309L101.889 162.094C103.817 166.856 110.562 166.856 112.491 162.094L125.769 129.309C126.583 127.295 128.192 125.702 130.219 124.928C154.513 115.653 171.769 92.1339 171.769 64.5806Z" fill="#5200D9"/>
<path d="M107.697 0.0015975C105.788 -0.0120255 103.896 0.0618026 102.025 0.210777C135.24 2.88045 161.363 30.6776 161.363 64.5806C161.363 92.1343 144.106 115.653 119.813 124.928C117.783 125.702 116.177 127.295 115.361 129.307L102.085 162.093C102.055 162.168 102.02 162.239 101.987 162.311C104.032 166.851 110.593 166.781 112.491 162.093L125.767 129.307C126.583 127.295 128.19 125.702 130.219 124.928C154.512 115.653 171.769 92.1338 171.769 64.5806C171.769 29.0828 143.129 0.274498 107.697 0.0015975Z" fill="#3D009F"/>
<path d="M76.0737 41.9502V98.6142C76.0738 99.414 76.3916 100.181 76.9572 100.747C77.5228 101.312 78.2898 101.63 79.0897 101.631H135.29C135.686 101.631 136.078 101.553 136.444 101.401C136.81 101.25 137.143 101.027 137.423 100.747C137.703 100.467 137.925 100.135 138.077 99.7686C138.228 99.4026 138.306 99.0103 138.306 98.6142V41.9506L76.0737 41.9502Z" fill="#E9E9EA"/>
<path d="M118.956 41.9502V51.4402C118.956 57.9393 124.225 63.2074 130.722 63.2074C137.221 63.2074 142.489 57.9393 142.489 51.4402V41.9502H118.956ZM71.8901 41.9502V51.4402C71.8901 57.9393 77.1583 63.2074 83.6574 63.2074C90.1547 63.2074 95.4233 57.9393 95.4233 51.4402V41.9502H71.8901Z" fill="#7FAB38"/>
<path d="M95.4226 41.9502V51.4402C95.4226 57.9393 100.691 63.2074 107.19 63.2074C113.688 63.2074 118.956 57.9393 118.956 51.4402V41.9502H95.4226Z" fill="#C5C4CC"/>
<path d="M81.0413 25.3576L71.8901 41.9505H142.489L133.338 25.3576C132.975 24.7 132.443 24.1517 131.796 23.7698C131.149 23.3879 130.412 23.1864 129.661 23.1863H84.7178C83.9667 23.1864 83.2295 23.3879 82.5828 23.7698C81.9361 24.1517 81.4036 24.7 81.0409 25.3576H81.0413Z" fill="#C9EA6E"/>
<path d="M118.956 41.9501H95.425L98.8717 23.1846H115.509L118.956 41.9501Z" fill="#F0F0F2"/>
<path d="M96.7842 74.2896V101.631H117.595V74.2896C117.595 73.8378 117.229 73.4722 116.779 73.4722H97.5998C97.4926 73.4723 97.3864 73.4935 97.2874 73.5347C97.1884 73.5758 97.0984 73.636 97.0227 73.7119C96.947 73.7878 96.8869 73.8779 96.846 73.977C96.8051 74.0761 96.7841 74.1823 96.7842 74.2896Z" fill="#8CBAFA"/>
<path d="M188.387 97.222C173.651 97.1091 161.43 108.94 161.094 123.672C160.823 135.506 168.144 145.666 178.526 149.624C179.374 149.946 180.042 150.617 180.382 151.457L185.951 165.207C186.759 167.205 189.588 167.205 190.397 165.207L195.965 151.457C196.133 151.039 196.386 150.66 196.707 150.344C197.028 150.028 197.411 149.781 197.831 149.62C208.021 145.728 215.26 135.865 215.26 124.307C215.26 109.419 203.247 97.3354 188.387 97.222ZM188.173 132.171C183.836 132.171 180.318 128.653 180.318 124.316C180.318 119.978 183.836 116.462 188.173 116.462C192.509 116.462 196.027 119.978 196.027 124.315C196.027 128.653 192.511 132.171 188.174 132.171H188.173ZM27.9654 144.436C13.2315 144.323 1.0107 156.155 0.672326 170.887C0.401183 182.722 7.72423 192.88 18.1063 196.839C18.9527 197.162 19.6202 197.831 19.9604 198.672L25.5291 212.422C26.339 214.421 29.1665 214.421 29.9764 212.422L35.5456 198.671C35.714 198.253 35.9665 197.874 36.2875 197.558C36.6085 197.242 36.9911 196.996 37.4115 196.834C47.6011 192.944 54.8384 183.079 54.8384 171.523C54.8384 156.634 42.8278 144.551 27.9654 144.436ZM27.7523 179.384C23.4149 179.384 19.8993 175.869 19.8993 171.531C19.8993 167.194 23.4162 163.676 27.7523 163.676C32.0902 163.676 35.6075 167.193 35.6075 171.531C35.6075 175.869 32.0902 179.385 27.7523 179.385V179.384Z" fill="#5200D9"/>
</g>
<defs>
<clipPath id="clip0_14_3260">
<rect width="225" height="225" fill="white"/>
</clipPath>
</defs>
</svg>
