<svg width="225" height="225" viewBox="0 0 225 225" fill="none" xmlns="http://www.w3.org/2000/svg">
<path d="M49.2188 73.8281H91.4062V161.719H49.2188V73.8281Z" fill="#3D009F"/>
<path d="M56.25 73.8281H91.4062V161.719H56.25V73.8281Z" fill="#5200D9"/>
<path d="M154.688 73.8281H196.875V165.234H154.688V73.8281Z" fill="#3D009F"/>
<path d="M161.719 73.8281H196.875V165.234H161.719V73.8281Z" fill="#5200D9"/>
<path d="M84.375 35.1562H161.719V49.2188H84.375V35.1562Z" fill="#B3B3B3"/>
<path d="M98.4375 42.1875H161.719V35.1562H91.4062C91.4062 37.0211 92.147 38.8095 93.4657 40.1281C94.7843 41.4467 96.5727 42.1875 98.4375 42.1875Z" fill="#E6E6E6"/>
<path d="M91.4062 49.2188V158.203H154.688V49.2188" fill="#2A78E9"/>
<path d="M98.4375 49.2188H154.688V158.203H98.4375V49.2188Z" fill="#4B97F3"/>
<path d="M123.047 63.2812C115.013 61.2732 107.882 56.6373 102.786 50.1106C97.6897 43.5838 94.9217 35.5408 94.9219 27.2602V17.5781C97.7191 17.5781 100.402 16.4669 102.38 14.489C104.358 12.5111 105.469 9.82846 105.469 7.03125H140.625C140.625 9.82846 141.736 12.5111 143.714 14.489C145.692 16.4669 148.375 17.5781 151.172 17.5781V27.2602C151.172 35.5408 148.404 43.5838 143.308 50.1106C138.212 56.6373 131.08 61.2732 123.047 63.2812Z" fill="#5200D9"/>
<path d="M123.047 56.25C117.022 54.7432 111.673 51.2659 107.851 46.3706C104.029 41.4753 101.953 35.443 101.953 29.2324V21.9727C104.051 21.9727 106.063 21.1393 107.546 19.6558C109.03 18.1724 109.863 16.1604 109.863 14.0625H136.23C136.23 16.1604 137.064 18.1724 138.547 19.6558C140.031 21.1393 142.043 21.9727 144.141 21.9727V29.2324C144.14 35.443 142.064 41.4753 138.242 46.3706C134.42 51.2659 129.072 54.7432 123.047 56.25Z" fill="#3D009F"/>
<path d="M122.087 47.6333C129.854 47.6333 136.15 41.3373 136.15 33.5708C136.15 25.8043 129.854 19.5083 122.087 19.5083C114.321 19.5083 108.025 25.8043 108.025 33.5708C108.025 41.3373 114.321 47.6333 122.087 47.6333Z" fill="white"/>
<path d="M116.55 34.2597L141.166 16.6921L145.252 22.4121L120.635 39.9832L116.55 34.2597Z" fill="#BEF4EF"/>
<path d="M154.688 73.8281H203.906V59.7656H154.688M91.4062 73.8281H42.1875V59.7656H91.4062" fill="#70492A"/>
<path d="M56.25 66.7969H91.4062V59.7656H49.2188C49.2188 61.6304 49.9595 63.4189 51.2782 64.7375C52.5968 66.0561 54.3852 66.7969 56.25 66.7969Z" fill="#845D42"/>
<path d="M63.2812 87.8906H77.3438V101.953H63.2812V87.8906ZM63.2812 112.5H77.3438V126.562H63.2812V112.5ZM168.75 87.8906H182.812V101.953H168.75V87.8906ZM168.75 112.5H182.812V126.562H168.75V112.5Z" fill="#F2F2F2"/>
<path d="M108.984 147.656V116.016H137.109V147.656" fill="#E6E6E6"/>
<path d="M116.016 116.016H137.109V147.656H116.016V116.016Z" fill="#F2F2F2"/>
<path d="M91.4062 80.8594H154.688V101.953H91.4062V80.8594Z" fill="#89F7F1"/>
<path d="M168.75 66.7969H203.906V59.7656H161.719C161.719 61.6304 162.46 63.4189 163.778 64.7375C165.097 66.0561 166.885 66.7969 168.75 66.7969Z" fill="#845D42"/>
<path d="M98.4375 80.8594H154.688V101.953H98.4375V80.8594Z" fill="#BEF4EF"/>
<path d="M7.03125 140.625H35.1562V217.969H7.03125V140.625Z" fill="#603813"/>
<path d="M14.0625 182.812C14.0687 189.043 16.1435 195.095 19.9613 200.019C23.7791 204.942 29.1237 208.459 35.1562 210.016V140.625H14.0625V182.812Z" fill="#70492A"/>
<path d="M35.1562 154.688L49.3805 145.796C58.465 140.119 68.962 137.109 79.6746 137.109C87.4103 137.11 95.0652 138.683 102.175 141.732C111.302 145.643 121.129 147.658 131.059 147.656H147.656C150.453 147.656 153.136 148.767 155.114 150.745C157.092 152.723 158.203 155.406 158.203 158.203L201.203 141.68C202.989 140.986 204.887 140.629 206.803 140.625C208.269 140.625 209.721 140.914 211.076 141.475C212.431 142.036 213.662 142.859 214.698 143.895C215.735 144.932 216.558 146.163 217.119 147.518C217.68 148.872 217.969 150.324 217.969 151.791C217.968 153.742 217.457 155.659 216.485 157.351C215.512 159.043 214.114 160.451 212.428 161.434L147.783 199.146C138.491 204.567 127.926 207.423 117.169 207.422C109.44 207.421 101.782 205.946 94.6055 203.077L75.491 195.43C72.0693 194.062 68.4182 193.36 64.7332 193.359C57.0511 193.359 49.6836 196.411 44.2512 201.843L35.1562 210.938" fill="#E2B2AA"/>
<path d="M214.337 143.596C212.29 141.692 209.599 140.631 206.803 140.625C204.887 140.629 202.989 140.986 201.203 141.68L158.203 158.203C158.201 155.497 157.153 152.896 155.278 150.943C155.067 150.722 154.832 150.525 154.603 150.321C152.692 148.613 150.22 147.665 147.656 147.656H131.059C121.134 147.657 111.312 145.641 102.189 141.732C93.7117 138.098 84.4812 136.57 75.2854 137.278C66.0895 137.985 57.2015 140.908 49.3805 145.796L35.1562 154.687V200.391L40.7355 194.811C44.7444 190.803 49.8409 188.06 55.3938 186.92C60.9466 185.78 66.7119 186.294 71.9754 188.399L91.0898 196.045C99.669 199.477 108.918 200.907 118.133 200.225C127.348 199.544 136.286 196.77 144.267 192.115L208.913 154.403C210.598 153.42 211.997 152.012 212.969 150.32C213.941 148.628 214.453 146.711 214.453 144.759C214.434 144.37 214.396 143.981 214.337 143.596Z" fill="#FFE2D5"/>
<path d="M151.172 165.234H105.469V172.266H151.172C154.901 172.266 158.478 170.784 161.116 168.147C163.753 165.509 165.234 161.933 165.234 158.203V155.5L158.203 158.203C158.203 160.068 157.462 161.856 156.144 163.175C154.825 164.493 153.037 165.234 151.172 165.234Z" fill="#E2B2AA"/>
</svg>
