<svg width="225" height="225" viewBox="0 0 225 225" fill="none" xmlns="http://www.w3.org/2000/svg">
<path d="M40.2948 145.534C34.0444 145.534 28.9775 140.467 28.9775 134.217V111.425C28.9775 105.175 34.0444 100.108 40.2948 100.108H184.705C190.956 100.108 196.022 105.175 196.022 111.425V134.217C196.022 140.467 190.956 145.534 184.705 145.534H40.2948Z" fill="#8AC9FE"/>
<path d="M195.795 109.164H62.9319C56.6798 109.164 51.6138 114.23 51.6138 120.482V143.271C51.6138 144.046 51.6907 144.806 51.8401 145.535H40.2957C34.0436 145.535 28.9775 140.469 28.9775 134.217V111.427C28.9775 105.175 34.0436 100.109 40.2957 100.109H184.703C190.182 100.109 194.745 103.998 195.795 109.164Z" fill="#60B7FF"/>
<path d="M55.9434 145.534V98.8198C55.9433 98.4036 56.0252 97.9915 56.1845 97.607C56.3437 97.2225 56.5771 96.8732 56.8714 96.5789C57.1656 96.2846 57.515 96.0512 57.8995 95.892C58.284 95.7328 58.6961 95.6508 59.1123 95.6509H66.0534C66.4696 95.6509 66.8816 95.7328 67.2661 95.8921C67.6506 96.0513 67.9999 96.2848 68.2942 96.579C68.5884 96.8733 68.8218 97.2226 68.9811 97.6071C69.1403 97.9916 69.2223 98.4036 69.2223 98.8198V145.534H55.9434ZM169.036 145.535V98.8198C169.036 97.9793 168.702 97.1733 168.108 96.579C167.513 95.9847 166.707 95.6509 165.867 95.6509H158.926C158.085 95.6509 157.279 95.9847 156.685 96.579C156.091 97.1733 155.757 97.9793 155.757 98.8198V145.535H169.036Z" fill="#D8ECFE"/>
<path d="M184.763 162.729V225H40.2375V162.729C40.2375 142.968 56.2547 126.951 76.0156 126.951H148.985C149.745 126.951 150.501 126.974 151.248 127.023C152.525 127.1 153.783 127.245 155.019 127.458C158.426 128.034 161.73 129.106 164.825 130.641C166.127 131.284 167.388 132.006 168.601 132.804C178.334 139.197 184.763 150.211 184.763 162.729Z" fill="#5200D9"/>
<path d="M184.763 208.675V225H183.174L162.426 207.801C155.318 201.907 151.248 193.237 151.248 184.002V127.023C152.525 127.1 153.783 127.245 155.019 127.458C158.426 128.034 161.73 129.106 164.825 130.64V184.002C164.825 189.181 167.111 194.038 171.095 197.343L184.763 208.675Z" fill="#9BE27D"/>
<path d="M172.793 136.027C172.402 136.011 172.011 136.003 171.62 136.005H98.6514C78.8905 136.005 62.8733 152.022 62.8733 171.783V225H40.2375V162.729C40.2375 142.968 56.2547 126.951 76.0156 126.951H148.985C151.04 126.951 153.059 127.123 155.019 127.458C159.868 128.279 164.493 130.1 168.6 132.804C170.076 133.773 171.478 134.85 172.793 136.027Z" fill="#3D009F"/>
<path d="M128.277 103.654V127.2C128.277 131.56 126.511 135.503 123.655 138.355C122.192 139.823 120.453 140.987 118.539 141.78C116.625 142.573 114.572 142.98 112.5 142.977C103.785 142.977 96.7227 135.915 96.7227 127.2V103.654H128.277Z" fill="#FED2A4"/>
<path d="M112.699 126.26C116.677 124.226 122.385 124.846 126.749 123.18C126.906 123.119 128.277 122.675 128.277 122.56V103.654H96.7231V127.2C96.7231 135.915 103.786 142.977 112.5 142.977C114.931 142.977 117.236 142.429 119.291 141.442C117.435 140.555 115.77 139.315 114.388 137.791C112.614 135.834 108.15 128.586 112.699 126.26Z" fill="#FFBD86"/>
<path d="M161.108 56.4733L113.818 49.0632L72.4932 56.4733V76.7303C72.4932 98.8256 90.4048 116.737 112.5 116.737C133.765 116.737 151.152 100.145 152.429 79.2009H161.108C164.39 79.2009 167.05 76.5405 167.05 73.2591V62.4156C167.05 59.1337 164.39 56.4733 161.108 56.4733Z" fill="#FED2A4"/>
<path d="M171.045 41.6544H161.307L148.708 14.9669C144.657 6.3835 136.802 0.778711 128.037 0.0769043C127.415 0.0263122 126.792 0.000656825 126.167 0L100.367 0C90.8645 0 82.1589 5.77661 77.8219 14.9669L65.2272 41.6544H53.9543C49.9795 41.6544 46.7561 44.8734 46.7561 48.8483V49.2785C46.7561 53.2534 49.9795 56.4724 53.9543 56.4724H171.045C175.02 56.4724 178.243 53.2534 178.243 49.2785V48.8483C178.244 44.8734 175.02 41.6544 171.045 41.6544Z" fill="#E19974"/>
<path d="M76.5906 56.472H53.9548C49.98 56.472 46.7566 53.253 46.7566 49.2781V48.8479C46.7566 44.873 49.98 41.6541 53.9548 41.6541H76.5906C72.6158 41.6541 69.3924 44.873 69.3924 48.8479V49.2781C69.3924 53.253 72.6158 56.472 76.5906 56.472Z" fill="#DC8758"/>
<path d="M157.066 32.6711H111.679C102.578 32.6711 96.5737 23.1978 100.458 14.9669C104.795 5.77661 113.501 0 123.003 0H100.367C90.8647 0 82.1587 5.77661 77.8218 14.9669L65.2271 41.6544H161.307L157.066 32.6711Z" fill="#DC8758"/>
<path d="M72.4935 56.4719V56.478L72.493 56.4736H63.892C60.6102 56.4736 57.9502 59.1341 57.9502 62.4155V73.2594C57.9502 76.5413 60.6106 79.2013 63.892 79.2013H72.5778C73.7978 99.2056 89.7073 115.242 109.666 116.638C100.789 109.299 95.1297 98.2032 95.1297 85.7852C95.1297 74.5962 104.2 65.5259 115.389 65.5259H152.507V56.4714H72.4935V56.4719Z" fill="#FFBD86"/>
<path d="M162.042 197.344C158.058 194.04 155.772 189.182 155.772 184.003V120.813C155.772 119.973 155.439 119.167 154.844 118.572C154.25 117.978 153.444 117.644 152.603 117.644H145.36C144.52 117.644 143.714 117.978 143.12 118.572C142.525 119.167 142.192 119.973 142.192 120.813V184.003C142.192 193.239 146.266 201.908 153.373 207.802L174.12 225H184.762L184.763 216.181L162.042 197.344ZM62.9366 197.344C66.9203 194.04 69.2063 189.182 69.2063 184.003V120.813C69.2063 119.973 69.5402 119.167 70.1344 118.572C70.7287 117.978 71.5347 117.644 72.3752 117.644H79.6183C80.4587 117.644 81.2647 117.978 81.859 118.572C82.4533 119.167 82.7871 119.973 82.7871 120.813V184.003C82.7871 193.239 78.713 201.908 71.6057 207.802L50.8587 225H40.2165L40.2156 216.181L62.9366 197.344Z" fill="#FEDBA6"/>
</svg>
