<svg width="225" height="225" viewBox="0 0 225 225" fill="none" xmlns="http://www.w3.org/2000/svg">
<path fill-rule="evenodd" clip-rule="evenodd" d="M225 208.325V188.394C225 177.794 218.122 175.616 209.357 170.361H153.751C144.986 175.616 138.108 177.794 138.108 188.394V208.325C138.108 210.774 139.238 210.466 141.111 210.466H221.997C223.871 210.466 225 210.773 225 208.325Z" fill="#F9F7F7"/>
<path fill-rule="evenodd" clip-rule="evenodd" d="M193.855 201.019L186.732 185.6L181.548 182.678L176.35 185.6L169.228 201.019C169.164 201.173 169.113 201.173 169.215 201.302L174.605 210.466H188.465L193.867 201.302C193.957 201.173 193.906 201.173 193.855 201.019Z" fill="#7BACDF"/>
<path fill-rule="evenodd" clip-rule="evenodd" d="M186.732 185.6L188.939 176.923L190.069 172.629L181.548 169.104L177.544 170.976L173.104 173.039L174.143 176.948L176.35 185.6H181.535H186.732Z" fill="#3987D0"/>
<path fill-rule="evenodd" clip-rule="evenodd" d="M174.143 176.948L181.548 169.104L176.453 164.182L166.469 162.747L153.752 170.36L167.008 178.935C169.473 180.37 170.037 181.703 171.872 179.345L174.143 176.948ZM196.1 178.935L209.357 170.361L196.639 162.747L188.94 163.26L181.548 169.105L188.94 176.923L191.224 179.345C193.072 181.704 193.636 180.371 196.1 178.935Z" fill="#CECECE"/>
<path fill-rule="evenodd" clip-rule="evenodd" d="M196.639 162.747C202.003 158.287 206.033 152.134 207.355 146.328C207.663 144.995 207.829 143.675 207.829 142.393V124.987H202.991C192.763 124.987 190.633 112.401 178.121 112.401H172.038C162.464 112.401 169.754 126.91 158.743 126.91H155.278V142.393C155.278 143.675 155.445 144.995 155.753 146.328C157.075 152.134 161.104 158.287 166.468 162.747C169.048 164.888 171.935 166.644 174.977 167.771C177.364 168.669 179.455 169.104 181.547 169.104C183.651 169.104 185.743 168.668 188.13 167.771C191.172 166.644 194.06 164.888 196.639 162.747Z" fill="#FFE5C1"/>
<path fill-rule="evenodd" clip-rule="evenodd" d="M207.83 119.937C207.83 107.671 195.228 99.3271 183.563 98.1353H178.031C173.54 98.6349 169.574 100.404 167.046 103.685C154.354 104.8 155.279 121.681 155.279 123.898V134.318H158.744C169.754 134.318 162.465 119.81 172.038 119.81H178.121C190.633 119.81 192.764 132.396 202.992 132.396H207.83V128.589V119.937Z" fill="#838383"/>
<path fill-rule="evenodd" clip-rule="evenodd" d="M207.83 124.988V119.937C207.83 107.671 195.228 99.3271 183.563 98.1353H178.044C189.414 99.6861 201.31 107.902 201.31 119.822V132.281C201.849 132.358 202.401 132.396 202.991 132.396H207.829V124.988H207.83Z" fill="#595959"/>
<path fill-rule="evenodd" clip-rule="evenodd" d="M207.83 142.393V132.396H202.992C202.402 132.396 201.85 132.357 201.311 132.281C192.482 130.999 189.915 119.809 178.122 119.809H172.039C168.51 119.809 167.265 121.796 166.559 124.295H173.528C185.309 124.295 187.888 136.741 196.704 138.022L200.554 138.099C201.324 138.099 201.311 138.382 201.311 139.099V142.252C201.311 143.534 201.144 144.854 200.837 146.187C199.515 151.993 195.485 158.145 190.121 162.606C189.877 162.811 189.608 163.029 189.351 163.234C188.38 163.988 187.369 164.69 186.322 165.336C184.829 166.248 183.252 167.017 181.613 167.63C181.215 167.784 180.83 167.925 180.445 168.04C179.585 168.322 178.764 168.54 177.968 168.681C179.2 168.963 180.368 169.104 181.549 169.104C183.653 169.104 185.745 168.668 188.132 167.771C191.174 166.643 194.061 164.888 196.64 162.747C202.004 158.287 206.034 152.134 207.356 146.328C207.663 144.995 207.83 143.675 207.83 142.393Z" fill="#FED1A3"/>
<path fill-rule="evenodd" clip-rule="evenodd" d="M175.542 175.474L181.548 169.104C180.367 169.104 179.199 168.963 177.968 168.681C176.95 168.449 175.951 168.145 174.977 167.771C171.936 166.643 169.049 164.887 166.469 162.747L160.361 166.399C161.078 167.092 161.822 167.755 162.594 168.386C165.828 171.09 169.459 173.295 173.283 174.718C173.386 174.756 173.476 174.782 173.579 174.82C174.226 175.058 174.881 175.276 175.542 175.474Z" fill="#B5ADB6"/>
<path fill-rule="evenodd" clip-rule="evenodd" d="M189.825 174.718C193.649 173.296 197.281 171.091 200.515 168.387C201.286 167.755 202.031 167.092 202.747 166.4L196.639 162.747C194.059 164.888 191.172 166.644 188.131 167.771C185.744 168.669 183.652 169.104 181.547 169.104L187.566 175.475C188.214 175.28 188.856 175.066 189.491 174.834C189.607 174.795 189.709 174.757 189.825 174.718Z" fill="#B5ADB6"/>
<path fill-rule="evenodd" clip-rule="evenodd" d="M187.566 175.474L181.548 169.104L178.365 172.488L181.779 176.986L182.831 178.319C183.152 178.717 183.063 178.781 182.934 179.28L181.92 183.254L181.548 185.599H186.733L188.94 176.922L187.566 175.474Z" fill="#0067B4"/>
<path fill-rule="evenodd" clip-rule="evenodd" d="M193.855 201.019L186.733 185.6H181.548L186.938 201.019C187.002 201.173 187.053 201.173 186.95 201.302L181.548 210.466H188.465L193.867 201.302C193.957 201.173 193.906 201.173 193.855 201.019Z" fill="#3987D0"/>
<path fill-rule="evenodd" clip-rule="evenodd" d="M225 188.394C225 177.794 218.122 175.616 209.357 170.361L201.182 175.642C208.766 179.974 214.4 182.665 214.4 192.253V210.466H221.997C223.871 210.466 225 210.774 225 208.325V188.394H225Z" fill="#E2E2E2"/>
<path fill-rule="evenodd" clip-rule="evenodd" d="M86.879 208.325V188.394C86.879 177.794 80.0134 175.615 71.2485 170.36L43.4395 169.104L15.6305 170.36C6.86558 175.615 0 177.794 0 188.394V208.325C0 210.773 1.11665 210.466 3.00278 210.466H83.8758C85.7623 210.465 86.879 210.773 86.879 208.325Z" fill="#F9F7F7"/>
<path fill-rule="evenodd" clip-rule="evenodd" d="M55.7337 201.019L48.6115 185.6L43.44 182.678L38.2426 185.6L31.1204 201.019C31.0562 201.173 31.0048 201.173 31.0949 201.302L36.4975 210.466H50.357L55.7596 201.302C55.8488 201.173 55.7978 201.173 55.7337 201.019Z" fill="#FE9737"/>
<path fill-rule="evenodd" clip-rule="evenodd" d="M48.6109 185.6L50.831 176.923L51.9604 172.629L43.4394 169.104L39.4356 170.976L34.9954 173.039L36.0347 176.948L38.242 185.6H43.4267H48.6109Z" fill="#FE7600"/>
<path fill-rule="evenodd" clip-rule="evenodd" d="M36.0347 176.948L43.4395 169.104L38.3449 164.182L28.3482 162.747L15.6309 170.36L28.9001 178.935C31.3642 180.37 31.9157 181.703 33.764 179.345L36.0347 176.948ZM57.9792 178.935L71.2485 170.361L58.5312 162.747L50.8315 163.26L43.4399 169.105L50.8315 176.923L53.1158 179.345C54.9632 181.704 55.5279 180.371 57.9792 178.935Z" fill="#CECECE"/>
<path fill-rule="evenodd" clip-rule="evenodd" d="M58.5313 162.747C63.8953 158.287 67.925 152.134 69.2469 146.328C69.555 144.995 69.7088 143.675 69.7088 142.393V124.987H64.8836C54.6558 124.987 52.5125 112.401 40.0132 112.401H33.9303C24.3568 112.401 31.646 126.91 20.6223 126.91H17.1704V142.393C17.1704 143.675 17.3242 144.995 17.6323 146.328C18.9542 152.134 22.9835 158.287 28.3479 162.747C30.9275 164.888 33.8147 166.644 36.8561 167.771C39.256 168.669 41.3478 169.104 43.4396 169.104C45.5314 169.104 47.6232 168.668 50.023 167.771C53.0645 166.644 55.9517 164.888 58.5313 162.747Z" fill="#FFE5C1"/>
<path fill-rule="evenodd" clip-rule="evenodd" d="M69.7087 119.937C69.7087 107.671 57.1069 99.3271 45.4416 98.1353H39.9102C35.4186 98.6349 31.4534 100.404 28.9252 103.685C16.2334 104.8 17.1703 121.681 17.1703 123.898V134.318H20.6222C31.6459 134.318 24.3567 119.81 33.9302 119.81H40.0131C52.5124 119.81 54.6556 132.396 64.8835 132.396H69.7087V128.589V119.937Z" fill="#838383"/>
<path fill-rule="evenodd" clip-rule="evenodd" d="M69.7088 124.988V119.937C69.7088 107.671 57.107 99.3271 45.4417 98.1353H39.9363C51.3063 99.6861 61.0463 106.723 61.0463 118.63V128.461L63.1895 132.281C63.7283 132.358 64.293 132.396 64.8836 132.396H69.7088V126.91V124.988Z" fill="#595959"/>
<path fill-rule="evenodd" clip-rule="evenodd" d="M37.4336 175.474L43.4396 169.104C42.2588 169.104 41.0784 168.963 39.8462 168.681C38.83 168.446 37.831 168.142 36.8562 167.771C33.8147 166.643 30.9275 164.887 28.3479 162.747L22.2395 166.399C22.962 167.086 23.7067 167.748 24.4724 168.386C27.719 171.09 31.3507 173.295 35.1752 174.718C35.2649 174.756 35.3677 174.782 35.4706 174.82C36.1182 175.058 36.7728 175.276 37.4336 175.474ZM51.704 174.718C55.5281 173.296 59.1597 171.091 62.4068 168.387C63.1781 167.755 63.923 167.092 64.6397 166.4L58.5313 162.747C55.9517 164.888 53.0645 166.644 50.0231 167.771C47.6232 168.669 45.5314 169.104 43.4396 169.104L49.4584 175.474C50.105 175.276 50.7467 175.063 51.3832 174.834C51.486 174.795 51.6016 174.757 51.704 174.718Z" fill="#B5ADB6"/>
<path fill-rule="evenodd" clip-rule="evenodd" d="M49.4582 175.474L43.4394 169.104L40.2441 172.488L43.6578 176.986L44.7103 178.319C45.0311 178.717 44.9542 178.781 44.8259 179.28L43.8121 183.254L43.4398 185.599H48.6113L50.8314 176.922L49.4582 175.474Z" fill="#E6581F"/>
<path fill-rule="evenodd" clip-rule="evenodd" d="M55.7336 201.019L48.6114 185.6H43.4395L48.8166 201.019C48.8808 201.173 48.9322 201.173 48.8421 201.302L43.4395 210.466H50.3564L55.7591 201.302C55.8487 201.173 55.7978 201.173 55.7336 201.019Z" fill="#F36B37"/>
<path fill-rule="evenodd" clip-rule="evenodd" d="M86.8789 188.394C86.8789 177.794 80.0133 175.616 71.2484 170.361L63.0737 175.642C70.6451 179.974 76.2916 182.665 76.2916 192.253V210.466H83.8757C85.7623 210.466 86.8785 210.774 86.8785 208.325L86.8789 188.394Z" fill="#E2E2E2"/>
<path fill-rule="evenodd" clip-rule="evenodd" d="M80.6677 16.8609C97.0167 0.531714 123.517 0.531714 139.866 16.8609C156.202 33.1901 156.202 59.6575 139.866 75.9739C123.517 92.3031 97.0167 92.3031 80.6677 75.9739C64.3315 59.6579 64.3315 33.1901 80.6677 16.8609Z" fill="#5200D9"/>
<path fill-rule="evenodd" clip-rule="evenodd" d="M125.853 16.861C142.202 33.1902 142.202 59.6576 125.853 75.974C120.514 81.3059 114.098 84.8949 107.309 86.7534C105.976 87.1121 104.627 87.4072 103.267 87.6376C109.274 88.6532 115.43 88.3515 121.31 86.7534C128.111 84.8949 134.527 81.3059 139.866 75.974C147.399 68.4502 151.454 58.7734 152.045 48.9169C152.147 47.2522 152.147 45.5828 152.045 43.9181C151.454 34.0616 147.399 24.3844 139.866 16.861C133.924 10.9266 126.648 7.15832 118.999 5.53059C113.828 4.42844 108.476 4.32561 103.266 5.19748C111.531 6.5945 119.474 10.4784 125.853 16.861Z" fill="#3D009F"/>
<path d="M103.869 61.4099C103.066 61.4099 102.289 61.1251 101.675 60.6061L90.1642 50.8652C89.8239 50.5775 89.5437 50.2255 89.3396 49.8294C89.1354 49.4333 89.0114 49.0008 88.9745 48.5567C88.9376 48.1125 88.9887 47.6655 89.1248 47.2412C89.2608 46.8168 89.4792 46.4234 89.7674 46.0835C90.3497 45.3968 91.1807 44.9693 92.078 44.895C92.9752 44.8207 93.8653 45.1056 94.5526 45.6872L103.459 53.2242L122.93 30.011C123.509 29.3212 124.337 28.8894 125.234 28.8105C126.131 28.7315 127.023 29.0119 127.713 29.59C128.055 29.876 128.337 30.2265 128.543 30.6216C128.749 31.0167 128.875 31.4485 128.914 31.8924C128.953 32.3363 128.905 32.7835 128.771 33.2086C128.637 33.6336 128.421 34.0281 128.134 34.3695L106.472 60.1961C106.153 60.5763 105.755 60.882 105.305 61.0917C104.856 61.3014 104.366 61.41 103.869 61.4099Z" fill="#F9F7F7"/>
<path fill-rule="evenodd" clip-rule="evenodd" d="M63.1895 132.281C54.3731 130.999 51.794 119.809 40.0131 119.809H33.9302C30.3882 119.809 29.1564 121.796 28.4507 124.295H35.4191C47.1995 124.295 49.7664 136.536 58.5954 137.818H60.7386C61.0981 137.818 61.0467 137.984 61.0467 138.331C61.0467 141.035 61.1877 143.535 60.5721 146.187C60.5466 146.329 60.5079 146.47 60.4824 146.61C58.4935 155.172 55.811 160.696 48.2015 165.336C46.7138 166.251 45.1408 167.02 43.5046 167.631C43.1069 167.784 42.7219 167.925 42.337 168.041C41.477 168.323 40.6561 168.54 39.8475 168.681C41.0792 168.963 42.2601 169.105 43.4409 169.105C45.5327 169.105 47.6245 168.669 50.0243 167.772C53.0658 166.644 55.953 164.888 58.5326 162.747C63.8965 158.287 67.9263 152.135 69.2482 146.329C69.5563 144.996 69.7101 143.676 69.7101 142.394V132.396H64.8849C64.3177 132.398 63.7512 132.359 63.1895 132.281Z" fill="#FED1A3"/>
<path fill-rule="evenodd" clip-rule="evenodd" d="M61.0463 131.742C61.7266 131.986 62.4323 132.166 63.1895 132.281C63.7283 132.358 64.293 132.396 64.8836 132.396H69.7088V119.937C69.7088 107.671 57.107 99.3271 45.4417 98.1353H39.9363C51.3063 99.6861 61.0463 106.723 61.0463 118.63V131.742Z" fill="#595959"/>
<path fill-rule="evenodd" clip-rule="evenodd" d="M155.946 218.22V198.289C155.946 187.702 149.068 185.523 140.303 180.268L127.046 188.843C124.582 190.265 124.018 191.611 122.17 189.24L119.886 186.83L112.494 179.012L105.089 186.843L102.818 189.24C100.97 191.611 100.418 190.265 97.9537 188.843L84.6972 180.268C75.9195 185.523 69.054 187.702 69.054 198.289V218.22C69.054 220.681 70.1833 220.373 72.0567 220.373H152.93C154.817 220.373 155.946 220.681 155.946 218.22Z" fill="#7BACDF"/>
<path fill-rule="evenodd" clip-rule="evenodd" d="M124.788 210.914L117.678 195.495L112.493 192.573L107.296 195.495L100.174 210.914C100.11 211.068 100.058 211.081 100.161 211.209L105.551 220.373H119.41L124.813 211.209C124.903 211.081 124.852 211.068 124.788 210.914Z" fill="#FE9737"/>
<path fill-rule="evenodd" clip-rule="evenodd" d="M117.678 195.495L119.885 186.831L121.015 182.537L112.493 179.012L108.49 180.871L104.049 182.934L105.089 186.844L107.296 195.495H112.481H117.678Z" fill="#FE7600"/>
<path fill-rule="evenodd" clip-rule="evenodd" d="M105.089 186.844L112.494 179.012L107.399 174.09L97.4026 172.642L84.698 180.268L97.9545 188.843C100.419 190.265 100.97 191.611 102.818 189.24L105.089 186.844ZM127.046 188.843L140.303 180.269L127.586 172.642L119.886 173.155L112.494 179.013L119.886 186.831L122.17 189.241C124.018 191.612 124.582 190.266 127.046 188.843Z" fill="#0078C8"/>
<path fill-rule="evenodd" clip-rule="evenodd" d="M127.585 172.642C132.949 168.181 136.979 162.029 138.301 156.236C138.609 154.89 138.762 153.57 138.762 152.288V134.882H133.937C123.709 134.882 121.579 122.296 109.067 122.296H102.984C93.4105 122.296 100.7 136.805 89.6892 136.805H86.2241V152.288C86.2241 153.57 86.3911 154.89 86.686 156.236C88.0206 162.029 92.05 168.181 97.4016 172.642C99.9812 174.782 102.868 176.538 105.91 177.679C108.31 178.563 110.402 179.012 112.493 179.012C114.585 179.012 116.69 178.563 119.077 177.679C122.118 176.538 125.005 174.782 127.585 172.642Z" fill="#FFE5C1"/>
<path fill-rule="evenodd" clip-rule="evenodd" d="M138.763 129.832C138.763 117.566 126.161 109.222 114.508 108.03H108.977C104.486 108.53 100.508 110.312 97.9924 113.58C85.2878 114.695 86.2247 131.576 86.2247 133.793V144.226H89.6898C100.7 144.226 93.4115 129.717 102.985 129.717H109.067C121.58 129.717 123.71 142.304 133.938 142.304H138.763V129.832H138.763Z" fill="#838383"/>
<path fill-rule="evenodd" clip-rule="evenodd" d="M138.763 129.832C138.763 117.566 126.161 109.222 114.508 108.03H108.99C120.36 109.581 132.256 117.81 132.256 129.717C132.243 133.87 132.243 138.023 132.256 142.176C132.782 142.265 133.347 142.304 133.937 142.304H138.763V129.832Z" fill="#595959"/>
<path fill-rule="evenodd" clip-rule="evenodd" d="M132.256 142.175C123.427 140.893 120.861 129.717 109.067 129.717H102.984C99.4424 129.717 98.2106 131.691 97.5049 134.19H104.473C116.254 134.19 118.821 146.431 127.65 147.712H129.806C130.152 147.712 130.101 147.892 130.101 148.238C130.101 150.942 130.242 153.429 129.639 156.095C129.6 156.236 129.575 156.364 129.536 156.505C127.547 165.067 124.865 170.591 117.255 175.231C115.754 176.154 114.175 176.936 112.558 177.538C112.161 177.679 111.776 177.82 111.391 177.948C110.531 178.217 109.71 178.435 108.901 178.589C110.133 178.871 111.314 179.012 112.495 179.012C114.586 179.012 116.691 178.563 119.078 177.679C122.12 176.538 125.007 174.782 127.586 172.642C132.95 168.181 136.98 162.029 138.302 156.236C138.61 154.89 138.764 153.569 138.764 152.288V142.303H133.939C133.347 142.304 132.782 142.265 132.256 142.175Z" fill="#FED1A3"/>
<path fill-rule="evenodd" clip-rule="evenodd" d="M106.488 185.37L112.494 179.012C111.313 179.012 110.133 178.871 108.9 178.589C107.951 178.371 106.962 178.064 105.91 177.679C102.869 176.539 99.9816 174.782 97.4021 172.642L91.3064 176.308C92.0282 176.991 92.7685 177.653 93.5265 178.295C96.7732 180.987 100.405 183.191 104.229 184.614C104.332 184.652 104.422 184.691 104.525 184.729C105.173 184.962 105.827 185.175 106.488 185.37Z" fill="#0067B4"/>
<path fill-rule="evenodd" clip-rule="evenodd" d="M120.771 184.613C124.595 183.191 128.214 180.986 131.461 178.295C132.226 177.656 132.97 176.993 133.694 176.308L127.585 172.642C125.006 174.782 122.118 176.538 119.077 177.679C116.69 178.563 114.585 179.012 112.493 179.012L118.512 185.369C119.141 185.19 119.783 184.972 120.437 184.741C120.545 184.691 120.657 184.648 120.771 184.613Z" fill="#0067B4"/>
<path fill-rule="evenodd" clip-rule="evenodd" d="M118.512 185.37L112.493 179.012L109.311 182.383L112.712 186.895L113.764 188.215C114.085 188.613 114.008 188.677 113.88 189.176L112.866 193.163L112.494 195.495H117.678L119.886 186.831L118.512 185.37Z" fill="#E6581F"/>
<path fill-rule="evenodd" clip-rule="evenodd" d="M124.788 210.914L117.678 195.495H112.493L117.871 210.914C117.935 211.068 117.986 211.081 117.896 211.209L112.493 220.373H119.41L124.813 211.209C124.903 211.081 124.852 211.068 124.788 210.914Z" fill="#F36B37"/>
<path fill-rule="evenodd" clip-rule="evenodd" d="M155.946 198.289C155.946 187.702 149.068 185.523 140.303 180.268L132.128 185.549C139.712 189.868 145.346 192.56 145.346 202.16V220.373H152.93C154.817 220.373 155.946 220.681 155.946 218.22V198.289H155.946Z" fill="#3987D0"/>
</svg>
