<svg width="74" height="67" viewBox="0 0 74 67" fill="none" xmlns="http://www.w3.org/2000/svg">
<path d="M7.59362 30.5986C6.15574 30.6024 4.7484 30.9891 3.5344 31.714C2.32039 32.4389 1.34934 33.4723 0.733584 34.6948C0.117835 35.9172 -0.117458 37.2787 0.0549319 38.6217C0.227322 39.9647 0.800347 41.2344 1.70772 42.2838L21.0507 64.5762C21.7404 65.3819 22.6244 66.0211 23.6294 66.4409C24.6344 66.8605 25.7314 67.0486 26.8291 66.9893C29.1769 66.8707 31.2966 65.6891 32.6481 63.7463L72.8282 2.86646C72.835 2.85628 72.8418 2.84623 72.8486 2.83631C73.2261 2.29171 73.1038 1.21246 72.3251 0.534467C72.112 0.34828 71.8594 0.205238 71.5852 0.114148C71.3102 0.0230575 71.0183 -0.0141515 70.7277 0.00481299C70.4371 0.0237775 70.154 0.0985144 69.8954 0.224419C69.636 0.350324 69.4079 0.524732 69.2233 0.736899C69.209 0.753581 69.1941 0.770013 69.1785 0.786194L28.6564 43.8602C28.5022 44.0241 28.3149 44.1576 28.1054 44.2529C27.896 44.3481 27.6685 44.4033 27.4361 44.415C27.2038 44.4269 26.9713 44.3952 26.7522 44.3217C26.5329 44.2483 26.3315 44.1347 26.1594 43.9873L12.7108 32.4734C11.3141 31.2688 9.48843 30.6 7.59362 30.5986Z" fill="#5200D9"/>
</svg>
