<svg width="399" height="399" viewBox="0 0 399 399" fill="none" xmlns="http://www.w3.org/2000/svg">
<path d="M74.1661 333.261C75.2753 328.864 72.3706 324.483 69.1227 321.291C65.8749 318.099 62.0046 315.29 60.3048 311.092C57.5438 304.277 61.1507 295.428 56.4744 289.754C53.7293 286.426 48.8216 285.333 46.3797 281.774C45.1029 279.906 44.672 277.6 44.1613 275.39C41.5168 264.066 35.881 253.66 27.8422 245.257C27.3425 255.364 29.5783 265.418 34.314 274.36C36.2132 277.927 38.5354 281.407 39.1818 285.397C40.2351 291.876 36.6521 298.58 38.28 304.94C40.1394 312.218 48.3508 317.045 48.7817 324.539C49.1488 330.883 43.6506 336.509 44.1054 342.805C44.289 345.502 45.5578 348 46.9623 350.314C51.9099 358.43 59.1477 364 70.0564 363.76L83.4309 364.151L74.1661 333.261Z" fill="#F5F5F5"/>
<path d="M86.184 364.486C87.4097 364.665 88.657 364.63 89.8707 364.383C91.35 364.162 92.8022 363.787 94.2039 363.266C96.1401 362.583 97.9476 361.58 99.5505 360.297C100.516 359.511 101.271 358.496 101.745 357.344C102.14 356.051 102.345 354.707 102.351 353.354C102.366 351.908 102.462 350.464 102.639 349.029C102.885 347.503 103.428 346.039 104.235 344.72C105.791 341.943 108.392 339.31 109.222 335.543C110.052 331.776 109.43 327.842 108.791 323.828C108.153 319.814 107.522 315.449 109.031 311.268C110.539 307.086 113.348 303.288 114.792 298.564C116.237 293.84 115.51 288.676 115.79 283.625C115.872 281.062 116.449 278.54 117.489 276.196C118.559 273.802 120.051 271.583 121.208 269.086C123.546 264.034 123.937 258.321 124.552 252.727C124.855 249.912 125.158 247.063 125.462 244.18C125.643 241.286 126.125 238.42 126.898 235.625C127.788 232.801 128.84 230.03 130.05 227.326C130.68 225.931 131.19 224.484 131.574 223.001C131.795 221.475 131.931 219.938 131.981 218.397C132.112 215.308 131.976 212.213 131.574 209.148C131.191 206.068 130.617 203.011 130.273 199.923C130.273 199.739 130.226 199.556 130.21 199.388L130.138 198.774L129.587 199.045C126.753 200.504 124.295 202.599 122.405 205.166C120.566 207.669 119.091 210.42 118.024 213.337C115.83 219.091 115.056 225.116 113.962 230.893C112.869 236.671 111.481 242.297 108.56 247.093C107.115 249.487 105.368 251.665 103.812 253.995C102.167 256.266 101.05 258.875 100.54 261.632C99.742 267.29 102.934 272.238 102.304 277.249C102.016 279.714 101.199 282.088 99.9096 284.208C98.7126 286.346 97.3001 288.333 95.9196 290.336C94.5491 292.285 93.3604 294.355 92.3685 296.521C91.4448 298.646 90.9045 300.918 90.7725 303.232C90.4692 307.741 91.1316 312.01 90.8283 316.056C90.4825 319.901 89.3815 323.641 87.5884 327.06C85.9924 330.364 84.2129 333.341 82.7206 336.237C81.9705 337.682 81.2842 339.094 80.7177 340.507C80.2024 341.874 79.8307 343.292 79.6084 344.736C79.2238 347.263 79.2049 349.832 79.5526 352.365C79.928 355.897 81.2699 359.257 83.4309 362.077C83.7632 362.494 84.1288 362.883 84.5241 363.242C84.7877 363.519 85.0822 363.765 85.4019 363.976C85.9047 364.343 86.1999 364.51 86.1999 364.51C85.2454 363.756 84.3734 362.903 83.5984 361.965C81.5174 359.146 80.2454 355.813 79.9197 352.325C79.6017 349.823 79.6447 347.289 80.0473 344.8C80.287 343.385 80.6749 342 81.2044 340.666C81.763 339.286 82.4653 337.881 83.2154 336.453C84.7236 333.588 86.5191 330.611 88.155 327.292C89.9903 323.822 91.1289 320.027 91.5066 316.12C91.8338 311.994 91.1874 307.701 91.5066 303.296C91.6473 301.058 92.1878 298.863 93.1026 296.816C94.0862 294.692 95.2615 292.662 96.6138 290.751C97.9545 288.764 99.3909 286.761 100.604 284.575C101.946 282.372 102.801 279.906 103.11 277.345C103.724 272.006 100.604 267.019 101.378 261.76C101.886 259.119 102.977 256.625 104.57 254.458C106.078 252.168 107.85 249.981 109.358 247.532C112.366 242.6 113.811 236.838 114.888 231.061C115.965 225.283 116.763 219.314 118.926 213.68C119.957 210.83 121.392 208.143 123.187 205.7C124.99 203.245 127.336 201.241 130.042 199.843L129.428 199.5C129.428 199.676 129.467 199.859 129.491 200.043C129.843 203.171 130.417 206.227 130.792 209.275C131.19 212.296 131.326 215.345 131.199 218.389C131.147 219.881 131.019 221.37 130.816 222.849C130.441 224.279 129.947 225.675 129.34 227.023C128.091 229.752 127.004 232.553 126.084 235.41C125.298 238.251 124.812 241.166 124.632 244.108C124.328 246.992 124.028 249.843 123.73 252.663C123.123 258.249 122.732 263.907 120.474 268.774C119.365 271.208 117.881 273.451 116.779 275.901C115.705 278.333 115.112 280.951 115.032 283.609C114.768 288.772 115.471 293.808 114.098 298.388C112.725 302.969 109.845 306.751 108.392 311.076C106.94 315.402 107.522 319.958 108.185 323.948C108.847 327.938 109.517 331.88 108.68 335.439C107.842 338.998 105.4 341.648 103.804 344.505C102.985 345.881 102.442 347.405 102.208 348.989C102.039 350.441 101.954 351.901 101.952 353.362C101.957 354.68 101.772 355.992 101.402 357.257C100.956 358.352 100.25 359.322 99.343 360.082C97.7786 361.354 96.0154 362.359 94.1241 363.058C92.7399 363.591 91.3075 363.989 89.8468 364.247C88.9512 364.412 88.0439 364.505 87.1336 364.526C86.4872 364.479 86.184 364.486 86.184 364.486Z" fill="#E0E0E0"/>
<path d="M127.52 206.754C127.456 206.882 127.413 207.019 127.393 207.161C127.313 207.48 127.217 207.879 127.105 208.366C126.842 209.419 126.539 211.015 126.044 213.002C125.549 214.989 124.336 217.232 123.315 220.001C122.293 222.77 121.176 225.922 120.187 229.497C119.197 233.072 118.311 237.03 117.386 241.283C116.46 245.537 115.486 250.061 113.18 254.362C112.095 256.541 110.874 258.743 109.908 261.153C108.962 263.626 108.332 266.208 108.033 268.838C107.388 274.278 106.455 279.68 105.24 285.022C102.623 295.994 100.125 306.448 97.8587 315.96C95.5923 325.472 93.4298 333.987 91.6662 341.185C89.9026 348.383 88.546 354.128 87.5645 358.214L86.4872 362.859C86.3834 363.345 86.2956 363.744 86.2318 364.064C86.1964 364.202 86.1751 364.344 86.168 364.486C86.2361 364.361 86.2871 364.227 86.3196 364.087L86.6547 362.898C86.958 361.781 87.365 360.241 87.8837 358.294C88.937 354.224 90.4213 348.447 92.2567 341.336L98.6407 316.152C100.931 306.631 103.429 296.202 106.094 285.205C107.309 279.832 108.233 274.398 108.863 268.926C109.154 266.363 109.763 263.846 110.675 261.433C111.608 259.087 112.805 256.892 113.867 254.69C116.197 250.309 117.146 245.624 118.056 241.403C118.966 237.182 119.796 233.2 120.753 229.632C121.711 226.065 122.724 222.889 123.738 220.144C124.751 217.399 125.868 215.109 126.347 213.058C126.826 211.007 127.042 209.451 127.249 208.374C127.329 207.879 127.401 207.48 127.449 207.153C127.487 207.023 127.511 206.889 127.52 206.754Z" fill="#E0E0E0"/>
<path d="M88.5301 364.518C97.2363 359.275 99.6543 343.507 95.9515 334.043C92.2488 324.578 85.8329 315.952 84.7795 305.849C83.9815 298.085 86.4793 290.089 84.6199 282.508C82.1222 272.27 72.0674 264.385 72.1233 253.844C72.1233 247.931 75.4908 242.352 75.1876 236.447C74.8205 229.201 69.2265 223.488 65.7393 217.12C60.4166 207.384 60.0016 195.829 58.1343 184.889C56.267 173.948 52.0456 162.241 42.294 156.911C40.9135 166.215 38.5035 172.599 39.3414 185.192C39.6447 189.716 44.9274 198.351 45.7254 208.262C46.1883 214.183 46.5234 220.12 46.9144 226.049C47.2975 231.819 47.7124 237.692 49.8032 243.079C51.3992 247.212 53.9847 250.955 55.1817 255.224C57.448 263.244 54.5832 271.982 56.4186 280.098C58.0146 286.993 62.8026 292.866 63.8001 299.888C65.2206 309.712 58.9164 319.958 62.2041 329.319C63.848 333.963 67.6944 337.674 68.8116 342.47C69.6734 346.196 68.8116 350.146 69.5617 353.889C70.8225 359.914 82.3297 364.526 88.4982 364.119" fill="#E0E0E0"/>
<path d="M44.7678 166.128C44.7485 166.303 44.7485 166.479 44.7678 166.654C44.8237 167.045 44.8875 167.548 44.9753 168.178C45.1828 169.519 45.4222 171.49 45.885 174.044C46.3479 176.597 47.7284 179.478 48.8057 182.957C49.883 186.437 51.064 190.419 52.0695 194.927C53.075 199.436 53.9528 204.36 54.8625 209.69C55.7722 215.021 56.7538 220.862 59.4351 226.369C60.672 229.154 62.0605 231.955 63.1138 234.907C64.137 237.96 64.7724 241.129 65.0051 244.34C65.534 251.158 66.429 257.943 67.6864 264.665C70.4395 278.43 73.0569 291.533 75.4429 303.471C77.9566 315.354 80.2309 326.063 82.1222 335.08L86.7027 356.371C87.2454 358.837 87.6763 360.776 87.9875 362.148C88.1311 362.771 88.2508 363.265 88.3386 363.649C88.3697 363.821 88.4206 363.99 88.4902 364.151C88.4885 363.977 88.4671 363.803 88.4264 363.633C88.3546 363.242 88.2668 362.747 88.1551 362.116C87.8838 360.728 87.5087 358.781 87.0299 356.299C86.0005 351.208 84.5322 343.922 82.7207 334.952C80.9092 325.983 78.7068 315.21 76.2569 303.28C73.807 291.35 71.2933 278.239 68.5722 264.481C67.3141 257.77 66.4164 250.995 65.8829 244.188C65.6355 240.927 64.9787 237.709 63.9278 234.612C62.8425 231.58 61.438 228.787 60.1932 226.025C57.5358 220.559 56.5782 214.853 55.6047 209.539C54.6311 204.224 53.7693 199.253 52.7079 194.768C51.6466 190.283 50.4815 186.277 49.3005 182.798C48.1194 179.319 46.7947 176.414 46.2521 173.956C45.7095 171.498 45.4541 169.471 45.1828 168.147C45.0631 167.516 44.9673 167.021 44.8955 166.63C44.8713 166.459 44.8285 166.29 44.7678 166.128Z" fill="#EBEBEB"/>
<path d="M170.229 41.3523H79.6404V135.78H170.229V41.3523Z" fill="#E0E0E0"/>
<path d="M164.093 41.3523H73.5038V135.78H164.093V41.3523Z" fill="#FAFAFA"/>
<path d="M164.117 135.812H73.4799V41.3284H164.117V135.812ZM73.5357 135.756H164.061V41.3842H73.5357V135.756Z" fill="#E0E0E0"/>
<path d="M151.915 54.0485H85.6813V123.091H151.915V54.0485Z" fill="#FAFAFA"/>
<path d="M85.6812 123.546C85.2164 124.244 84.6669 124.882 84.0453 125.445C82.9919 126.563 81.5077 128.079 79.8398 129.715C78.172 131.351 76.6478 132.819 75.5147 133.856C74.9393 134.46 74.2967 134.995 73.5995 135.452C74.0541 134.761 74.5899 134.126 75.1955 133.561C76.2568 132.444 77.7491 130.928 79.4169 129.284C81.0847 127.64 82.6089 126.172 83.75 125.134C84.3319 124.534 84.9798 124.001 85.6812 123.546Z" fill="#E0E0E0"/>
<path d="M151.915 123.379C152.607 123.837 153.244 124.372 153.815 124.975C154.932 126.028 156.44 127.52 158.084 129.18C159.728 130.84 161.188 132.372 162.225 133.513C162.833 134.085 163.369 134.728 163.821 135.429C163.132 134.971 162.497 134.436 161.93 133.833C160.813 132.771 159.297 131.279 157.653 129.611C156.009 127.943 154.541 126.419 153.503 125.278C152.9 124.711 152.366 124.073 151.915 123.379Z" fill="#E0E0E0"/>
<path d="M151.732 54.2639C152.202 53.57 152.751 52.9327 153.368 52.3647C154.429 51.2475 155.913 49.7393 157.581 48.0954C159.249 46.4515 160.773 44.9912 161.906 43.9538C162.48 43.3482 163.122 42.8125 163.821 42.3578C163.367 43.05 162.831 43.6849 162.225 44.249C161.164 45.3662 159.68 46.8824 158.004 48.5263C156.328 50.1702 154.812 51.6385 153.671 52.6759C153.091 53.2821 152.44 53.8154 151.732 54.2639Z" fill="#E0E0E0"/>
<path d="M85.4977 54.3996C84.8054 53.9423 84.1681 53.4068 83.5985 52.8036C82.4813 51.7502 80.9731 50.266 79.3292 48.5981C77.6853 46.9303 76.225 45.4061 75.1876 44.273C74.5791 43.7024 74.0431 43.0592 73.5916 42.3578C74.2812 42.8153 74.9158 43.3509 75.4828 43.9538C76.6 45.0151 78.1082 46.5074 79.7601 48.1752C81.4119 49.843 82.8723 51.3672 83.9097 52.5163C84.5135 53.0773 85.0467 53.7097 85.4977 54.3996Z" fill="#E0E0E0"/>
<path d="M151.732 123.091C151.732 123.091 151.732 122.972 151.732 122.756C151.732 122.541 151.732 122.198 151.732 121.791C151.732 120.921 151.732 119.676 151.732 118.064C151.732 114.792 151.732 110.036 151.66 103.995C151.66 91.8976 151.588 74.6767 151.532 54.0484L151.788 54.3038H85.7451L86.0404 54.0085C86.0404 79.353 86.0404 103.054 86.0404 123.051L85.785 122.796L133.609 122.924L147.047 122.996H150.599H151.516H151.835H151.548H150.654H147.151L133.769 123.059L85.785 123.187H85.5376V122.94C85.5376 102.942 85.5376 79.2413 85.4897 53.8968V53.6016H85.793H151.835H152.091V53.8569C152.035 74.5491 151.995 91.8337 151.963 103.963C151.963 109.98 151.915 114.72 151.899 117.976C151.899 119.572 151.899 120.801 151.899 121.655C151.899 122.054 151.899 122.365 151.899 122.589C151.863 122.762 151.807 122.931 151.732 123.091Z" fill="#E0E0E0"/>
<path d="M129.851 77.5177H107.746V99.6143H129.851V77.5177Z" fill="#EBEBEB"/>
<path d="M336.301 87.4288V169.822H217.966L213.704 88.0034L336.301 87.4288Z" fill="#E0E0E0"/>
<path d="M213.696 88.0033V169.647H332.032V88.0033L213.696 88.0033Z" fill="white"/>
<path d="M332.598 170.213H213.138V87.4448H332.598V170.213ZM214.263 169.088H331.473V88.578H214.263V169.088Z" fill="#E0E0E0"/>
<path d="M319.224 98.1539H226.52V159.512H319.224V98.1539Z" fill="white"/>
<path d="M319.2 98.1539H318.737H317.42H312.329L293.225 98.2257L226.496 98.3534L226.76 98.0901C226.76 116.835 226.76 137.607 226.76 159.432L226.472 159.145L319.176 159.201L318.937 159.432C318.993 140.759 319.032 125.454 319.064 114.792C319.064 109.462 319.112 105.304 319.12 102.447C319.12 101.035 319.12 99.9574 319.12 99.2073C319.12 98.4572 319.12 98.0821 319.12 98.0821C319.12 98.0821 319.12 98.4332 319.12 99.1594C319.12 99.8856 319.12 100.963 319.12 102.351C319.12 105.192 319.12 109.334 319.184 114.641C319.184 125.334 319.248 140.695 319.304 159.424V159.656H319.2L226.496 159.72H226.201V159.424C226.201 137.599 226.201 116.827 226.201 98.0821V97.8108H226.472L293.377 97.9464L312.425 98.0183H317.46H318.745C319.08 98.1539 319.2 98.1539 319.2 98.1539Z" fill="#E0E0E0"/>
<path d="M213.704 87.7799C214.434 88.1332 215.118 88.5755 215.739 89.0966C216.944 89.9744 218.596 91.2113 220.376 92.6317C222.155 94.0522 223.719 95.4088 224.821 96.4143C225.456 96.9221 226.027 97.5064 226.52 98.1539C226.409 98.2736 223.56 95.9275 220.009 93.0946C216.458 90.2617 213.601 87.9156 213.704 87.7799Z" fill="#E0E0E0"/>
<path d="M332.04 88.0114C332.135 88.1311 329.35 90.5091 325.807 93.3101C322.264 96.1111 319.32 98.2736 319.224 98.1539C319.128 98.0342 321.905 95.6482 325.448 92.8472C328.991 90.0463 331.968 87.8837 332.04 88.0114Z" fill="#E0E0E0"/>
<path d="M331.968 169.663L318.777 158.969L331.968 169.663Z" fill="white"/>
<path d="M318.753 158.97C318.849 158.842 321.889 161.132 325.528 164.085C329.167 167.037 332.048 169.535 331.912 169.671C331.776 169.806 328.776 167.5 325.129 164.548C321.482 161.595 318.649 159.089 318.753 158.97Z" fill="#E0E0E0"/>
<path d="M213.704 169.647C213.601 169.519 216.362 167.173 219.865 164.404C223.368 161.635 226.289 159.488 226.385 159.616C226.48 159.744 223.727 162.09 220.224 164.859C216.721 167.628 213.8 169.774 213.704 169.647Z" fill="#E0E0E0"/>
<path d="M245.345 117.274V137.815H303.679V117.274H245.345Z" fill="#E0E0E0"/>
<path d="M327.116 202.205L336.995 190.235C336.995 190.235 339.477 174.028 339.134 171.746C338.407 168.708 337.495 165.718 336.405 162.792C336.337 162.598 336.313 162.391 336.333 162.186C336.354 161.981 336.42 161.783 336.526 161.606C336.632 161.43 336.775 161.279 336.946 161.164C337.117 161.048 337.311 160.972 337.514 160.941C339.31 160.645 342.246 160.941 344.529 165.274C346.619 169.264 347.721 174.642 348.247 178.146C348.318 178.573 348.479 178.981 348.721 179.341C348.962 179.701 349.278 180.005 349.648 180.232C350.017 180.459 350.431 180.604 350.861 180.657C351.291 180.71 351.728 180.67 352.141 180.54C356.681 179.099 361.315 177.976 366.011 177.18C368.716 176.869 371.764 179.446 372.355 181.377C372.802 182.83 370.527 185.607 370.527 185.607C370.527 185.607 372.882 186.532 373.719 188.2C373.831 188.416 373.935 188.623 374.023 188.831C374.307 189.509 374.41 190.251 374.32 190.981C374.231 191.712 373.952 192.406 373.512 192.996L372.889 193.794C372.889 193.794 375.762 194.281 376.265 195.853C376.573 197.007 376.662 198.209 376.528 199.396L374.174 202.365C374.955 202.965 375.516 203.807 375.77 204.759C376.05 206.219 372.475 210.265 372.475 210.265L354.352 217.144L347.968 223.232L327.116 202.205Z" fill="#B78876"/>
<path d="M372.091 186.054C371.976 186.144 371.85 186.219 371.716 186.277L370.591 186.844L366.434 188.871L360.241 191.823C359.068 192.358 357.847 193.004 356.522 193.483C355.822 193.778 355.062 193.902 354.304 193.845C353.547 193.789 352.814 193.552 352.165 193.156C351.532 192.677 351.093 191.986 350.929 191.209C350.774 190.474 350.802 189.712 351.008 188.99C351.433 187.649 352.3 186.49 353.466 185.703C354.481 184.998 355.548 184.371 356.658 183.827L359.483 182.335L363.585 180.204L364.71 179.638C364.838 179.565 364.975 179.509 365.117 179.47C365.004 179.564 364.881 179.644 364.75 179.71L363.665 180.34L359.627 182.59L356.826 184.131C355.745 184.68 354.705 185.307 353.714 186.006C352.626 186.752 351.818 187.838 351.415 189.094C351.194 189.744 351.172 190.446 351.352 191.109C351.533 191.772 351.908 192.365 352.429 192.813C353.005 193.209 353.685 193.426 354.384 193.435C355.074 193.445 355.76 193.331 356.411 193.1C357.712 192.645 358.916 191.999 360.098 191.504L366.322 188.631L370.535 186.724L371.692 186.221C371.818 186.149 371.952 186.092 372.091 186.054Z" fill="#AA6550"/>
<path d="M374.062 194.321C373.789 194.504 373.497 194.659 373.193 194.784C372.618 195.055 371.788 195.43 370.743 195.869C368.668 196.755 365.755 197.896 362.491 199.005C361.694 199.292 360.882 199.535 360.058 199.731C359.269 199.921 358.444 199.904 357.664 199.684C357.002 199.464 356.415 199.061 355.973 198.521C355.531 197.981 355.251 197.328 355.166 196.635C355.072 195.705 355.344 194.775 355.924 194.042C356.078 193.848 356.255 193.674 356.451 193.523C356.586 193.427 356.666 193.387 356.674 193.395C356.682 193.403 356.403 193.635 356.052 194.137C355.564 194.858 355.352 195.731 355.453 196.595C355.551 197.219 355.82 197.804 356.229 198.284C356.639 198.765 357.174 199.122 357.775 199.316C358.503 199.505 359.266 199.505 359.994 199.316C360.804 199.117 361.603 198.875 362.388 198.59C365.652 197.489 368.564 196.396 370.663 195.582L373.161 194.616C373.451 194.488 373.753 194.389 374.062 194.321Z" fill="#AA6550"/>
<path d="M374.589 202.094C374.315 202.225 374.025 202.321 373.727 202.381L371.333 203.019C369.306 203.538 366.506 204.224 363.409 204.958C362.65 205.157 361.88 205.314 361.103 205.429C360.349 205.544 359.579 205.447 358.877 205.15C358.549 205.015 358.255 204.809 358.016 204.547C357.777 204.285 357.6 203.973 357.496 203.634C357.329 203.048 357.368 202.422 357.608 201.862C357.949 201.072 358.556 200.425 359.324 200.035C359.579 199.863 359.867 199.746 360.169 199.692C360.169 199.692 359.882 199.851 359.371 200.17C358.685 200.591 358.151 201.22 357.847 201.966C357.651 202.477 357.631 203.039 357.791 203.562C357.89 203.847 358.05 204.108 358.26 204.325C358.469 204.543 358.723 204.713 359.004 204.823C359.644 205.079 360.342 205.159 361.023 205.054C361.784 204.935 362.538 204.775 363.282 204.575C366.378 203.841 369.195 203.203 371.262 202.756L373.656 202.245C373.961 202.162 374.274 202.112 374.589 202.094Z" fill="#AA6550"/>
<path d="M374.31 209.148C373.421 209.266 372.525 209.312 371.629 209.283C369.977 209.283 367.686 209.283 365.165 209.283H363.313C362.727 209.306 362.14 209.255 361.566 209.132C361.013 209.014 360.517 208.709 360.161 208.27C360.007 208.073 359.9 207.843 359.847 207.599C359.795 207.354 359.798 207.101 359.858 206.858C359.959 206.527 360.131 206.223 360.361 205.966C360.591 205.708 360.874 205.503 361.191 205.365C361.41 205.245 361.66 205.192 361.909 205.214C361.909 205.254 361.654 205.285 361.263 205.509C360.989 205.657 360.749 205.859 360.557 206.103C360.365 206.348 360.225 206.629 360.145 206.929C360.105 207.128 360.11 207.333 360.16 207.529C360.21 207.725 360.303 207.907 360.433 208.063C360.756 208.419 361.183 208.664 361.654 208.765C362.204 208.86 362.763 208.898 363.321 208.876H365.165C367.686 208.876 369.953 208.94 371.629 208.988C372.525 208.974 373.421 209.027 374.31 209.148Z" fill="#AA6550"/>
<path d="M357.656 202.261C356.222 201.642 354.731 201.169 353.203 200.849C351.653 200.671 350.088 200.652 348.535 200.793C350.064 200.307 351.686 200.187 353.27 200.442C354.854 200.697 356.356 201.32 357.656 202.261Z" fill="#AA6550"/>
<path d="M269.149 241.579L329.574 198.112L351.056 222.73L303.767 271.472C282.636 290.584 275.238 295.412 240.206 275.462L217.974 262.694L226.185 364.096H125.637C114.593 363.744 140.001 336.038 138.262 336.038L116.205 261.576L82.0823 284.511L114.425 309.8L102.455 337.498L47.1539 311.938C27.1081 298.604 29.7974 272.629 46.8985 255.679C77.7013 225.156 101.538 202.947 127.872 198.447C141.438 194.369 149.418 193.659 149.418 193.659C170.612 193.355 172.192 193.427 183.548 193.962C185.758 194.077 187.958 194.343 190.132 194.76C202.521 196.606 214.274 201.443 224.374 208.853L269.149 241.579Z" fill="#5200D9"/>
<path d="M270.602 261.904C270.413 261.683 270.257 261.435 270.139 261.169C269.761 260.477 269.431 259.76 269.15 259.023C268.724 257.931 268.386 256.808 268.136 255.663C267.839 254.26 267.657 252.835 267.593 251.402C267.551 249.967 267.631 248.53 267.833 247.109C268.01 245.949 268.277 244.804 268.631 243.685C268.847 242.931 269.113 242.193 269.429 241.475C269.529 241.192 269.666 240.924 269.836 240.677C269.916 240.677 269.421 241.834 268.902 243.733C268.611 244.849 268.39 245.981 268.24 247.125C268.065 248.525 267.998 249.936 268.04 251.346C268.101 252.755 268.267 254.158 268.535 255.544C268.768 256.671 269.072 257.782 269.445 258.871C270.099 260.778 270.674 261.864 270.602 261.904Z" fill="#263238"/>
<path d="M215.819 286.099C218.915 282.369 221.143 277.999 222.343 273.303C223.542 268.607 223.684 263.703 222.757 258.945C221.83 254.188 219.857 249.696 216.982 245.794C214.107 241.892 210.401 238.678 206.131 236.384" fill="#5200D9"/>
<path d="M206.099 237.956C206.254 238.021 206.399 238.107 206.53 238.211C206.794 238.394 207.217 238.65 207.703 239.009C209.122 240.063 210.456 241.226 211.693 242.488C215.73 246.708 218.993 251.605 221.333 256.956C222.708 259.897 223.427 263.102 223.44 266.348C223.422 268.98 223.003 271.593 222.195 274.097C221.668 275.782 221.028 277.43 220.28 279.029L219.634 280.313C219.565 280.467 219.482 280.614 219.386 280.752C219.425 280.589 219.484 280.431 219.562 280.281C219.705 279.938 219.897 279.483 220.128 278.965C220.814 277.349 221.411 275.698 221.916 274.017C222.666 271.53 223.051 268.946 223.057 266.348C223.012 263.168 222.288 260.034 220.934 257.155C218.603 251.849 215.405 246.967 211.47 242.712C210.258 241.443 208.962 240.257 207.592 239.161C207.113 238.762 206.714 238.49 206.467 238.275C206.334 238.181 206.211 238.074 206.099 237.956Z" fill="#263238"/>
<path d="M183.787 266.588C183.81 266.701 183.81 266.818 183.787 266.931C183.787 267.154 183.787 267.482 183.724 267.905C183.598 269.097 183.363 270.275 183.021 271.424C181.909 275.263 179.729 278.707 176.735 281.356C173.742 284.005 170.058 285.749 166.112 286.386C164.929 286.589 163.729 286.68 162.529 286.658C162.106 286.658 161.771 286.61 161.555 286.602C161.439 286.601 161.323 286.582 161.212 286.546C161.65 286.504 162.089 286.486 162.529 286.49C163.713 286.453 164.892 286.322 166.056 286.099C169.922 285.396 173.522 283.647 176.464 281.041C179.406 278.435 181.577 275.073 182.742 271.32C183.096 270.188 183.363 269.03 183.54 267.857C183.6 267.43 183.682 267.006 183.787 266.588Z" fill="#263238"/>
<path d="M144.326 304.238C144.384 304.381 144.422 304.531 144.438 304.684C144.502 305.028 144.574 305.482 144.67 305.985C144.802 306.671 144.898 307.364 144.957 308.06C145.029 308.858 145.156 309.8 145.172 310.829C145.172 311.34 145.212 311.882 145.228 312.425C145.244 312.968 145.228 313.566 145.228 314.173C145.228 315.386 145.092 316.67 144.981 318.027C144.644 320.961 144.064 323.862 143.249 326.701C142.39 329.528 141.296 332.277 139.977 334.921C139.339 336.118 138.748 337.275 138.086 338.288C137.767 338.799 137.48 339.31 137.16 339.772L136.235 341.097C135.66 341.951 135.054 342.693 134.551 343.3C134.048 343.906 133.577 344.465 133.186 344.896C132.795 345.327 132.516 345.606 132.277 345.861C132.179 345.982 132.066 346.089 131.941 346.18C132.021 346.048 132.112 345.923 132.213 345.805L133.059 344.792C133.434 344.361 133.857 343.826 134.367 343.196C134.878 342.565 135.445 341.831 135.963 340.962L136.857 339.637C137.168 339.174 137.448 338.663 137.759 338.153C138.405 337.131 138.98 335.982 139.602 334.793C142.22 329.539 143.9 323.867 144.566 318.035C144.685 316.686 144.837 315.41 144.845 314.213C144.845 313.614 144.909 313.032 144.901 312.473C144.893 311.914 144.901 311.38 144.901 310.877C144.901 309.855 144.797 308.938 144.749 308.124C144.701 307.31 144.614 306.616 144.534 306.049C144.454 305.482 144.422 305.083 144.382 304.74C144.349 304.575 144.33 304.406 144.326 304.238Z" fill="#263238"/>
<path d="M60.7997 280.417C61.0717 280.279 61.3618 280.18 61.6615 280.122C62.0052 280.018 62.3541 279.933 62.7069 279.867C63.1139 279.787 63.5847 279.675 64.1034 279.619C65.329 279.437 66.5672 279.355 67.8061 279.372C69.3199 279.403 70.8283 279.563 72.3148 279.851C73.8 280.162 75.2573 280.594 76.6719 281.143C77.8187 281.606 78.9285 282.156 79.9916 282.787C80.4544 283.043 80.8375 283.33 81.1886 283.585C81.5397 283.841 81.819 284.032 82.0504 284.216C82.304 284.388 82.5346 284.592 82.7367 284.822C82.6888 284.886 81.6674 284.08 79.84 283.067C78.7732 282.477 77.6666 281.962 76.5283 281.526C75.1312 281.002 73.6959 280.586 72.235 280.282C70.7709 280.002 69.2877 279.834 67.7981 279.779C66.5779 279.75 65.357 279.801 64.1433 279.93C62.0685 280.138 60.8156 280.489 60.7997 280.417Z" fill="#263238"/>
<path d="M129.276 238.051C129.277 237.892 129.299 237.734 129.34 237.58C129.412 237.229 129.492 236.783 129.603 236.24C129.911 234.609 130.132 232.963 130.266 231.308C130.461 228.855 130.387 226.388 130.042 223.951C129.617 220.971 128.652 218.093 127.193 215.46C125.747 212.822 123.709 210.555 121.24 208.837C119.206 207.463 116.901 206.541 114.481 206.131C112.848 205.863 111.182 205.863 109.55 206.131C108.384 206.323 107.77 206.546 107.754 206.498C107.898 206.43 108.047 206.373 108.201 206.331C108.631 206.182 109.071 206.062 109.518 205.972C111.169 205.644 112.864 205.603 114.529 205.852C117.007 206.224 119.373 207.139 121.456 208.533C123.992 210.264 126.082 212.572 127.552 215.268C129.033 217.945 130.004 220.872 130.417 223.903C130.749 226.368 130.794 228.864 130.553 231.34C130.396 233.005 130.129 234.658 129.755 236.288C129.627 236.862 129.515 237.301 129.428 237.604C129.392 237.758 129.341 237.908 129.276 238.051Z" fill="#263238"/>
<path d="M97.8429 233.646C97.6492 231.463 97.5905 229.27 97.6673 227.079C97.6096 224.887 97.6923 222.693 97.9147 220.511C98.1081 222.695 98.1641 224.888 98.0823 227.079C98.1399 229.271 98.06 231.464 97.8429 233.646Z" fill="#FAFAFA"/>
<path d="M82.6728 252.774C81.5349 251.759 80.4882 250.645 79.5447 249.447C78.5001 248.333 77.5598 247.125 76.7357 245.84C77.8749 246.857 78.9217 247.973 79.8639 249.175C80.9093 250.286 81.8497 251.491 82.6728 252.774Z" fill="#FAFAFA"/>
<path d="M108.113 249.016C106.279 249.713 104.396 250.276 102.479 250.7C100.597 251.263 98.6768 251.692 96.7336 251.984C98.5707 251.286 100.456 250.724 102.375 250.301C104.255 249.737 106.173 249.308 108.113 249.016Z" fill="#FAFAFA"/>
<path d="M118.71 240.693C118.526 240.179 118.413 239.642 118.375 239.097C118.24 238.091 118.104 236.703 118.04 235.107C117.988 233.777 118.004 232.445 118.088 231.117C118.082 230.564 118.152 230.014 118.296 229.481C118.415 229.481 118.343 231.987 118.455 235.067C118.567 238.147 118.83 240.677 118.71 240.693Z" fill="#FAFAFA"/>
<path d="M79.0818 275.613C78.8765 273.802 78.8071 271.977 78.8743 270.155C78.8071 268.333 78.8792 266.508 79.0898 264.697C79.2947 266.508 79.3614 268.333 79.2893 270.155C79.3565 271.977 79.2871 273.802 79.0818 275.613Z" fill="#FAFAFA"/>
<path d="M61.5258 269.788C59.2293 269.101 56.9751 268.281 54.7747 267.33C52.5245 266.508 50.3237 265.557 48.1832 264.481C50.4799 265.17 52.7341 265.994 54.9343 266.947C57.1828 267.77 59.3834 268.718 61.5258 269.788Z" fill="#FAFAFA"/>
<path d="M46.2841 289.674C46.2753 287.839 46.4087 286.006 46.6831 284.192C46.8144 282.363 47.0811 280.547 47.4811 278.757C47.49 280.592 47.3566 282.425 47.0821 284.24C46.9525 286.068 46.6858 287.885 46.2841 289.674Z" fill="#FAFAFA"/>
<path d="M71.1976 306.033C70.4846 305.935 69.7821 305.772 69.0988 305.546C67.814 305.211 66.0505 304.748 64.0794 304.293C62.1083 303.839 60.3208 303.495 59.0201 303.2C58.3107 303.097 57.6113 302.934 56.9293 302.713C57.65 302.7 58.3699 302.767 59.0759 302.913C60.3847 303.104 62.1961 303.424 64.1752 303.886C66.1542 304.349 67.9178 304.852 69.1786 305.267C69.8753 305.455 70.5516 305.711 71.1976 306.033Z" fill="#FAFAFA"/>
<path d="M79.9038 298.667C78.8477 295.087 78.0609 291.433 77.5497 287.735C78.1412 289.508 78.6026 291.321 78.9302 293.161C79.3881 294.971 79.7135 296.811 79.9038 298.667Z" fill="#FAFAFA"/>
<path d="M88.6977 322.392C88.0743 322.425 87.4493 322.377 86.8384 322.248C83.8823 321.813 80.9855 321.042 78.204 319.95C77.6138 319.756 77.0507 319.488 76.5282 319.152C77.1366 319.268 77.7325 319.441 78.3077 319.671C79.393 320.022 80.8933 320.469 82.577 320.94C84.2608 321.41 85.769 321.738 86.9102 321.953C87.5192 322.039 88.118 322.186 88.6977 322.392Z" fill="#FAFAFA"/>
<path d="M98.6009 319.998C98.5633 319.345 98.5927 318.69 98.6887 318.043C98.7844 316.838 98.9121 315.178 98.9839 313.335C99.0558 311.491 99.0717 309.832 99.0797 308.627C99.0412 307.972 99.0625 307.315 99.1435 306.663C99.3001 307.303 99.3779 307.96 99.375 308.619C99.4468 309.824 99.4787 311.507 99.375 313.359C99.3172 314.937 99.1787 316.511 98.96 318.075C98.914 318.727 98.7935 319.373 98.6009 319.998Z" fill="#FAFAFA"/>
<path d="M136.753 264.186C136.658 264.258 135.046 262.191 132.891 259.805C130.736 257.419 128.853 255.591 128.941 255.496C129.43 255.799 129.88 256.161 130.282 256.573C131.08 257.291 132.109 258.321 133.194 259.525C134.28 260.73 135.197 261.88 135.828 262.717C136.2 263.164 136.511 263.658 136.753 264.186Z" fill="#FAFAFA"/>
<path d="M159.289 244.1C158.215 245.229 157.039 246.258 155.778 247.173C154.602 248.197 153.339 249.115 152.003 249.918C153.082 248.794 154.257 247.766 155.514 246.845C156.689 245.821 157.952 244.903 159.289 244.1Z" fill="#FAFAFA"/>
<path d="M146.736 232.928C146.561 230.384 146.527 227.832 146.633 225.283C146.599 222.734 146.706 220.184 146.952 217.646C147.121 220.191 147.153 222.743 147.048 225.291C147.081 227.841 146.977 230.39 146.736 232.928Z" fill="#FAFAFA"/>
<path d="M183.261 211.574C184.12 209.498 185.104 207.475 186.205 205.517C187.188 203.499 188.294 201.542 189.517 199.66C188.664 201.736 187.681 203.756 186.572 205.709C185.592 207.731 184.486 209.69 183.261 211.574Z" fill="#FAFAFA"/>
<path d="M180.611 235.354C178.969 233.436 177.431 231.43 176.007 229.345C174.472 227.339 173.047 225.25 171.738 223.089C173.385 225.003 174.923 227.009 176.342 229.098C177.874 231.107 179.299 233.195 180.611 235.354Z" fill="#FAFAFA"/>
<path d="M208.031 219.107C206.858 220.7 205.573 222.207 204.184 223.616C202.897 225.119 201.508 226.532 200.027 227.845C201.206 226.255 202.494 224.749 203.881 223.336C205.169 221.836 206.556 220.423 208.031 219.107Z" fill="#FAFAFA"/>
<path d="M199.5 257.443C197.976 255.613 196.561 253.694 195.263 251.697C193.852 249.781 192.552 247.785 191.368 245.72C192.889 247.551 194.303 249.466 195.606 251.458C197.02 253.375 198.32 255.373 199.5 257.443Z" fill="#FAFAFA"/>
<path d="M169.024 269.572C169.597 267.641 170.301 265.75 171.131 263.915C171.84 262.025 172.674 260.186 173.629 258.408C173.056 260.342 172.352 262.235 171.522 264.074C170.813 265.96 169.978 267.797 169.024 269.572Z" fill="#FAFAFA"/>
<path d="M148.628 286.482C148.572 286.578 145.045 284.83 140.751 282.572C136.458 280.313 133.019 278.39 133.075 278.295C133.13 278.199 136.65 279.938 140.943 282.205C145.236 284.471 148.675 286.378 148.628 286.482Z" fill="#FAFAFA"/>
<path d="M161.994 315.665C162.266 314.967 162.614 314.3 163.031 313.678C163.956 312.128 164.957 310.626 166.032 309.177C167.108 307.727 168.259 306.334 169.479 305.004C169.952 304.416 170.488 303.881 171.075 303.408C170.66 304.031 170.196 304.621 169.687 305.171C168.809 306.233 167.612 307.717 166.359 309.401C165.106 311.084 164.037 312.664 163.271 313.806C162.893 314.457 162.466 315.078 161.994 315.665Z" fill="#FAFAFA"/>
<path d="M135.987 310.294C135.741 308.856 135.631 307.397 135.66 305.937C135.545 304.48 135.574 303.015 135.748 301.564C135.989 303.006 136.099 304.467 136.075 305.929C136.181 307.384 136.151 308.845 135.987 310.294Z" fill="#FAFAFA"/>
<path d="M159.999 339.15C159.903 339.222 158.491 337.45 156.615 335.383C154.74 333.317 153.128 331.721 153.208 331.633C155.883 333.734 158.18 336.276 159.999 339.15Z" fill="#FAFAFA"/>
<path d="M146.92 350.322C145.387 351.695 143.761 352.959 142.052 354.105C140.426 355.363 138.72 356.515 136.945 357.552C138.477 356.179 140.104 354.915 141.813 353.769C143.436 352.507 145.142 351.356 146.92 350.322Z" fill="#FAFAFA"/>
<path d="M177.22 351.774C176.607 351.961 175.98 352.097 175.345 352.181C174.18 352.405 172.584 352.732 170.844 353.203C169.104 353.674 167.548 354.184 166.439 354.575C165.846 354.828 165.232 355.025 164.604 355.166C165.141 354.809 165.719 354.52 166.327 354.304C167.761 353.707 169.232 353.206 170.732 352.804C172.232 352.399 173.757 352.093 175.297 351.886C175.93 351.766 176.577 351.728 177.22 351.774Z" fill="#FAFAFA"/>
<path d="M189.98 349.117C189.868 349.117 189.182 345.35 188.464 340.658C187.745 335.966 187.251 332.152 187.362 332.136C187.474 332.12 188.16 335.902 188.879 340.594C189.597 345.287 190.092 349.101 189.98 349.117Z" fill="#FAFAFA"/>
<path d="M192.988 318.274C192.244 318.184 191.511 318.015 190.802 317.772C189.469 317.397 187.61 316.814 185.663 316.088C183.716 315.362 181.904 314.619 180.643 314.045C179.947 313.766 179.279 313.422 178.648 313.016C179.374 313.206 180.081 313.46 180.763 313.774C182.048 314.276 183.827 314.971 185.806 315.697C187.785 316.423 189.581 317.045 190.89 317.492C191.61 317.693 192.312 317.955 192.988 318.274Z" fill="#FAFAFA"/>
<path d="M215.229 334.178C214.239 336.081 213.128 337.918 211.901 339.677C210.788 341.512 209.56 343.273 208.222 344.951C209.21 343.048 210.322 341.211 211.55 339.453C212.662 337.618 213.891 335.857 215.229 334.178Z" fill="#FAFAFA"/>
<path d="M211.191 361.941C209.537 360.935 207.956 359.816 206.459 358.589C204.877 357.47 203.378 356.238 201.974 354.903C203.627 355.908 205.209 357.028 206.706 358.254C208.288 359.373 209.787 360.606 211.191 361.941Z" fill="#FAFAFA"/>
<path d="M206.794 301.077C206.4 303.272 205.867 305.439 205.198 307.565C204.664 309.733 203.995 311.865 203.195 313.949C203.591 311.755 204.124 309.589 204.791 307.461C205.324 305.294 205.993 303.161 206.794 301.077Z" fill="#FAFAFA"/>
<path d="M200.298 288.956C197.157 287.64 194.344 285.651 192.055 283.13C192.142 283.043 193.818 284.559 196.101 286.155C198.383 287.751 200.298 288.876 200.298 288.956Z" fill="#FAFAFA"/>
<path d="M209.97 269.556C209.377 270.832 208.664 272.048 207.839 273.187C207.124 274.398 206.293 275.537 205.357 276.587C205.95 275.311 206.663 274.095 207.488 272.956C208.203 271.745 209.034 270.606 209.97 269.556Z" fill="#FAFAFA"/>
<path d="M226.241 233.176C226.638 231.063 227.171 228.979 227.837 226.935C228.38 224.853 229.052 222.806 229.848 220.807C229.449 222.919 228.916 225.003 228.252 227.047C227.714 229.131 227.042 231.178 226.241 233.176Z" fill="#FAFAFA"/>
<path d="M238.602 259.071C237.943 258.726 237.322 258.311 236.751 257.834C235.329 256.744 233.976 255.569 232.697 254.315C231.421 253.062 230.227 251.73 229.122 250.325C228.629 249.766 228.206 249.149 227.861 248.489C228.394 249.001 228.89 249.55 229.345 250.133C230.247 251.171 231.508 252.567 232.992 254.035C234.476 255.504 235.897 256.741 236.934 257.618C237.528 258.057 238.086 258.543 238.602 259.071Z" fill="#FAFAFA"/>
<path d="M248.529 248.178C248.425 248.114 249.559 246.239 250.62 243.765C251.681 241.291 252.288 239.177 252.407 239.208C251.847 242.464 250.518 245.54 248.529 248.178Z" fill="#FAFAFA"/>
<path d="M256.286 268.822C256.415 267.33 256.682 265.853 257.084 264.409C257.345 262.938 257.737 261.493 258.257 260.092C258.131 261.585 257.864 263.063 257.459 264.505C257.202 265.977 256.81 267.423 256.286 268.822Z" fill="#FAFAFA"/>
<path d="M274.72 280.952C273.151 279.977 271.657 278.886 270.251 277.688C268.758 276.599 267.349 275.399 266.037 274.097C267.606 275.072 269.1 276.163 270.506 277.361C272.002 278.447 273.41 279.647 274.72 280.952Z" fill="#FAFAFA"/>
<path d="M287.543 255.464C287.317 256.086 287.031 256.684 286.69 257.251C286.131 258.337 285.389 259.845 284.663 261.56C283.936 263.276 283.362 264.848 282.963 266.005C282.784 266.642 282.549 267.262 282.261 267.857C282.322 267.196 282.462 266.545 282.676 265.918C283.113 264.378 283.646 262.867 284.272 261.393C284.897 259.919 285.616 258.488 286.426 257.108C286.734 256.519 287.109 255.967 287.543 255.464Z" fill="#FAFAFA"/>
<path d="M297.486 242.496C294.923 241.931 292.393 241.228 289.905 240.39C287.378 239.685 284.89 238.846 282.452 237.876C285.013 238.452 287.544 239.158 290.033 239.991C292.558 240.699 295.046 241.535 297.486 242.496Z" fill="#FAFAFA"/>
<path d="M308.116 254.187C307.704 254.773 307.257 255.333 306.775 255.863C304.589 258.532 302.775 261.485 301.381 264.641C301.128 265.311 300.826 265.961 300.479 266.588C300.601 265.875 300.813 265.181 301.109 264.521C302.37 261.269 304.215 258.276 306.552 255.687C307.005 255.121 307.531 254.616 308.116 254.187Z" fill="#FAFAFA"/>
<path d="M313.287 236.32C313.232 235.549 313.232 234.776 313.287 234.005C313.327 232.577 313.351 230.606 313.287 228.419C313.223 226.233 313.063 224.278 312.936 222.833C312.828 222.067 312.775 221.293 312.776 220.519C313.009 221.259 313.162 222.021 313.231 222.794C313.484 224.646 313.641 226.511 313.702 228.38C313.764 230.242 313.727 232.107 313.59 233.966C313.575 234.759 313.473 235.548 313.287 236.32Z" fill="#FAFAFA"/>
<path d="M332.766 236.016C331.178 234.981 329.67 233.826 328.257 232.561C326.743 231.41 325.316 230.148 323.988 228.787C325.574 229.83 327.083 230.984 328.505 232.242C330.017 233.392 331.442 234.654 332.766 236.016Z" fill="#FAFAFA"/>
<path d="M340.483 222.73C340.15 222.02 339.87 221.286 339.645 220.535C339.158 219.171 338.464 217.303 337.618 215.26C336.772 213.218 335.942 211.406 335.32 210.097C334.948 209.408 334.63 208.69 334.37 207.951C334.842 208.581 335.249 209.257 335.583 209.97C336.269 211.247 337.179 213.05 337.977 215.101C338.775 217.152 339.477 219.051 339.9 220.447C340.175 221.185 340.37 221.95 340.483 222.73Z" fill="#FAFAFA"/>
<g opacity="0.3">
<path d="M181.729 273.985C178.537 282.388 169.854 286.171 161.779 286.705H161.316C157.638 286.532 153.958 286.997 150.439 288.078C152.611 291.711 156.041 294.42 160.078 295.691C164.116 296.961 168.479 296.704 172.34 294.97C176.201 293.235 179.29 290.142 181.021 286.28C182.751 282.417 183.003 278.053 181.729 274.017V273.985Z" fill="black"/>
</g>
<g opacity="0.3">
<path d="M125.549 293.289C127.496 300.551 130.25 309.089 132.197 316.351C133.904 322.735 136.514 329.718 138.222 336.078L138.972 336.006C142.259 321.211 136.673 303.575 125.549 293.289Z" fill="black"/>
</g>
<g opacity="0.3">
<path d="M230.622 260.403C227.316 253.602 221.509 248.341 214.415 245.72C218.405 251.466 222.913 258.4 223.368 265.846L229.313 269.261C231.165 267.474 231.739 262.71 230.622 260.403Z" fill="black"/>
</g>
<path d="M145.42 204.328C144.621 204.568 143.857 204.908 143.145 205.341C142.509 205.878 141.948 206.498 141.477 207.185C141.43 207.185 141.477 206.866 141.677 206.427C141.967 205.859 142.388 205.369 142.906 204.998C143.419 204.627 144.012 204.381 144.638 204.28C145.124 204.216 145.42 204.288 145.42 204.328Z" fill="#263238"/>
<path d="M155.139 216.801C155.091 216.801 154.956 216.466 154.908 215.867C154.866 215.079 154.999 214.291 155.299 213.561C155.59 212.826 156.046 212.168 156.632 211.638C157.078 211.239 157.43 211.087 157.43 211.127C156.708 211.892 156.111 212.764 155.658 213.712C155.332 214.71 155.157 215.751 155.139 216.801Z" fill="#263238"/>
<path d="M144.765 216.258C144.713 215.739 144.768 215.215 144.925 214.718C145.532 212.249 147.074 210.112 149.226 208.757C149.646 208.452 150.124 208.234 150.63 208.118C149.138 208.989 147.844 210.163 146.834 211.566C145.823 212.968 145.119 214.566 144.765 216.258Z" fill="#263238"/>
<path d="M137.902 201.455C137.863 201.455 138.006 201.104 138.405 200.657C138.942 200.138 139.603 199.764 140.326 199.573C141.048 199.382 141.807 199.378 142.531 199.564C143.081 199.723 143.329 199.931 143.329 199.979C142.368 199.782 141.377 199.782 140.416 199.979C139.489 200.3 138.635 200.802 137.902 201.455Z" fill="#263238"/>
<path d="M166.239 216.106C166.009 215.449 165.846 214.77 165.753 214.079C165.527 213.423 165.361 212.747 165.258 212.061C165.741 212.598 166.053 213.268 166.152 213.984C166.381 214.669 166.412 215.405 166.239 216.106Z" fill="#263238"/>
<path d="M177.699 216.258C177.154 213.736 175.906 211.421 174.1 209.579C175.247 210.259 176.166 211.264 176.741 212.467C177.437 213.605 177.771 214.927 177.699 216.258Z" fill="#263238"/>
<path d="M182.527 207.336C182.415 207.384 182.112 206.746 181.401 206.339C180.691 205.932 180.005 205.948 179.989 205.828C179.973 205.708 180.149 205.692 180.46 205.676C180.865 205.667 181.264 205.775 181.609 205.988C181.954 206.19 182.232 206.49 182.407 206.85C182.566 207.121 182.574 207.32 182.527 207.336Z" fill="#263238"/>
<path d="M191.696 203.49C191.282 203.224 190.882 202.936 190.499 202.628C189.532 201.988 188.446 201.548 187.307 201.335C186.156 201.131 184.976 201.158 183.835 201.415C182.965 201.623 182.455 201.87 182.423 201.806C182.81 201.48 183.27 201.25 183.763 201.136C184.934 200.777 186.174 200.703 187.379 200.921C188.584 201.139 189.719 201.642 190.69 202.389C191.1 202.679 191.443 203.055 191.696 203.49Z" fill="#263238"/>
<path d="M189.182 196.364C188.409 196.242 187.626 196.186 186.844 196.196C186.074 196.338 185.316 196.538 184.577 196.795C185.185 196.216 185.97 195.859 186.805 195.781C187.64 195.703 188.478 195.908 189.182 196.364Z" fill="#263238"/>
<path d="M146.656 185.878C138.174 186.07 126.012 185.08 120.953 178.257C115.894 171.434 118.088 159.025 120.729 150.966C113.212 142.571 113.547 128.302 121.527 120.291C122.956 118.838 124.616 117.553 125.661 115.806C127.632 112.518 127.05 108.376 127.528 104.562C127.919 101.457 129.047 98.4904 130.819 95.9107C132.59 93.331 134.954 91.2131 137.712 89.7341C140.47 88.2551 143.542 87.4581 146.671 87.4097C149.8 87.3612 152.895 88.0629 155.698 89.4558C160.422 85.3301 165.338 81.1646 171.259 79.0818C177.18 76.999 184.418 77.5417 188.871 81.9546C191.313 84.3486 192.861 87.8438 195.909 89.4079C198.957 90.972 202.78 90.1501 206.163 90.9481C212.619 92.4722 216.186 99.3909 217.878 105.807C219.57 112.223 220.408 119.245 224.749 124.265C227.007 126.882 230.095 128.773 231.931 131.694C232.96 133.319 233.549 135.183 233.64 137.104C233.732 139.025 233.323 140.937 232.453 142.652C231.583 144.368 230.283 145.828 228.679 146.889C227.075 147.951 225.223 148.577 223.304 148.707C227.238 153.679 228.092 160.677 226.353 166.774C224.613 172.871 220.974 180.587 214.662 182.582C210.474 183.842 205.97 183.518 202.006 181.673C202.006 181.673 198.726 187.913 183.652 187.307C160.127 186.349 150.247 194.672 146.664 185.846" fill="#263238"/>
<path d="M200.968 157.733C202.07 147.893 200.833 131.909 199.372 118.854C198.088 107.108 189.621 93.0149 177.938 94.8024L141.709 105.759C139.997 106.019 138.446 106.912 137.361 108.261C136.277 109.61 135.738 111.317 135.852 113.045L143.496 199.644C143.585 200.697 143.964 201.705 144.59 202.556C146.985 205.92 150.269 208.549 154.075 210.15C157.88 211.752 162.057 212.261 166.136 211.622C180.372 209.778 183.564 200.649 184.218 197.736C184.33 197.25 184.378 196.751 184.362 196.252C184.003 185.024 183.795 180.627 183.803 180.707C183.811 180.787 198.758 177.515 200.968 157.733Z" fill="#B78876"/>
<path d="M193.236 131.758C193.271 132.415 193.05 133.06 192.617 133.556C192.185 134.052 191.577 134.36 190.922 134.415C190.602 134.457 190.277 134.435 189.967 134.348C189.656 134.262 189.366 134.113 189.114 133.912C188.862 133.711 188.654 133.461 188.501 133.177C188.348 132.893 188.254 132.582 188.224 132.261C188.187 131.605 188.407 130.961 188.838 130.466C189.269 129.971 189.876 129.664 190.531 129.611C190.85 129.568 191.175 129.59 191.486 129.675C191.797 129.76 192.088 129.908 192.341 130.108C192.593 130.309 192.803 130.558 192.957 130.842C193.11 131.125 193.205 131.437 193.236 131.758Z" fill="#263238"/>
<path d="M196.731 128.909C196.436 129.252 194.457 127.927 191.751 128.063C189.046 128.199 187.115 129.659 186.804 129.324C186.652 129.18 186.948 128.574 187.785 127.903C188.919 127.037 190.294 126.543 191.72 126.491C193.131 126.417 194.53 126.797 195.71 127.576C196.563 128.175 196.875 128.757 196.731 128.909Z" fill="#263238"/>
<path d="M167.436 132.947C167.474 133.603 167.254 134.248 166.823 134.744C166.393 135.24 165.785 135.549 165.13 135.604C164.81 135.647 164.484 135.626 164.173 135.54C163.861 135.454 163.57 135.306 163.318 135.104C163.065 134.903 162.855 134.653 162.702 134.368C162.549 134.084 162.454 133.771 162.425 133.449C162.389 132.794 162.61 132.15 163.04 131.654C163.471 131.158 164.077 130.849 164.731 130.792C165.051 130.749 165.377 130.771 165.689 130.857C166 130.943 166.291 131.091 166.544 131.292C166.797 131.493 167.006 131.744 167.159 132.028C167.313 132.312 167.407 132.625 167.436 132.947Z" fill="#263238"/>
<path d="M169.894 129.803C169.599 130.146 167.62 128.829 164.915 128.957C162.21 129.085 160.278 130.553 159.975 130.218C159.824 130.082 160.111 129.468 160.949 128.797C162.084 127.934 163.458 127.441 164.883 127.385C166.295 127.311 167.693 127.691 168.873 128.47C169.727 129.069 170.038 129.651 169.894 129.803Z" fill="#263238"/>
<path d="M180.468 148.723C180.468 148.572 182.12 148.205 184.833 147.726C185.519 147.622 186.165 147.454 186.261 146.976C186.288 146.26 186.096 145.553 185.711 144.949C184.976 143.305 184.218 141.581 183.42 139.778C180.228 132.404 177.89 126.331 178.185 126.212C178.481 126.092 181.314 131.957 184.498 139.331C185.296 141.15 186.006 142.882 186.7 144.542C187.176 145.355 187.348 146.311 187.187 147.239C187.099 147.488 186.954 147.714 186.765 147.898C186.575 148.082 186.345 148.22 186.094 148.3C185.716 148.424 185.325 148.499 184.929 148.524C182.191 148.787 180.484 148.875 180.468 148.723Z" fill="#263238"/>
<path d="M183.819 180.707C174.582 181.273 165.37 179.265 157.206 174.906C157.206 174.906 164.476 188.472 184.051 185.719L183.819 180.707Z" fill="#AA6550"/>
<path d="M179.622 155.307C179.073 154.686 178.377 154.214 177.597 153.935C176.817 153.656 175.979 153.579 175.161 153.711C174.566 153.793 173.993 153.994 173.478 154.303C172.962 154.611 172.514 155.021 172.161 155.506C171.819 155.974 171.629 156.537 171.618 157.116C171.606 157.696 171.774 158.265 172.097 158.746C172.895 159.744 174.411 159.911 175.688 159.48C176.946 158.968 178.091 158.211 179.055 157.254C179.346 157.034 179.594 156.763 179.789 156.456C179.882 156.302 179.927 156.125 179.919 155.946C179.91 155.767 179.849 155.594 179.742 155.45" fill="#AA6550"/>
<path d="M172.576 150.966C173.014 150.918 173.158 153.862 175.768 155.833C178.377 157.805 181.497 157.342 181.537 157.749C181.585 157.932 180.867 158.355 179.542 158.451C177.827 158.549 176.132 158.04 174.754 157.015C173.426 156.027 172.533 154.562 172.264 152.929C172.081 151.708 172.368 150.958 172.576 150.966Z" fill="#263238"/>
<path d="M170.708 124.281C170.469 125.031 167.748 124.807 164.588 125.334C161.427 125.861 158.898 126.85 158.443 126.212C158.235 125.9 158.658 125.19 159.656 124.424C161 123.486 162.54 122.867 164.159 122.612C165.778 122.358 167.434 122.475 169 122.956C170.19 123.371 170.772 123.929 170.708 124.281Z" fill="#263238"/>
<path d="M196.156 124.113C195.71 124.751 193.81 124.201 191.568 124.273C189.326 124.344 187.442 124.879 186.971 124.273C186.764 123.969 187.035 123.339 187.841 122.677C188.924 121.926 190.206 121.515 191.523 121.495C192.84 121.475 194.134 121.847 195.239 122.565C196.061 123.179 196.356 123.802 196.156 124.113Z" fill="#263238"/>
<path d="M152.051 94.4673C152.13 96.4404 152.643 98.3719 153.553 100.124C154.463 101.877 155.748 103.408 157.317 104.607C158.885 105.807 160.699 106.647 162.629 107.066C164.558 107.486 166.557 107.476 168.482 107.036C171.458 106.357 174.682 104.698 177.348 106.182C180.157 107.778 180.444 111.856 182.934 113.851C186.525 116.708 191.903 113.643 196.356 114.752C199.795 115.614 202.062 118.742 204.432 121.392C206.802 124.041 210.297 126.467 213.649 125.31C213.413 122.255 212.827 119.237 211.901 116.316C210.969 113.36 209.036 110.821 206.435 109.134C204.99 108.281 203.338 107.794 201.99 106.796C199.069 104.65 198.239 100.716 196.404 97.6194C195.17 95.6261 193.48 93.9557 191.471 92.7469C189.463 91.5381 187.195 90.8257 184.857 90.6688C180.978 90.4453 177.044 91.778 173.238 90.996C170.429 90.4134 167.915 88.7137 165.074 88.2987C159.536 87.5007 154.605 91.6663 150.79 95.768" fill="#263238"/>
<path d="M140.911 138.054C140.6 137.918 128.47 134.375 128.869 146.752C129.268 159.129 141.637 156.185 141.637 155.825C141.637 155.466 140.911 138.054 140.911 138.054Z" fill="#B78876"/>
<path d="M137.687 151.277C137.631 151.277 137.479 151.429 137.12 151.612C136.618 151.84 136.047 151.868 135.524 151.692C134.2 151.253 133.035 149.218 132.899 146.984C132.837 145.925 133.008 144.865 133.402 143.879C133.508 143.486 133.709 143.125 133.988 142.827C134.266 142.53 134.613 142.305 134.998 142.172C135.244 142.097 135.508 142.111 135.744 142.212C135.981 142.313 136.174 142.493 136.29 142.722C136.466 143.065 136.394 143.313 136.466 143.329C136.538 143.345 136.721 143.113 136.602 142.611C136.534 142.291 136.353 142.008 136.091 141.813C135.919 141.691 135.725 141.604 135.52 141.557C135.314 141.511 135.102 141.505 134.894 141.541C134.388 141.656 133.921 141.899 133.536 142.247C133.152 142.595 132.864 143.036 132.699 143.528C132.207 144.619 131.988 145.813 132.061 147.008C132.221 149.497 133.569 151.796 135.381 152.25C135.716 152.336 136.067 152.346 136.407 152.278C136.747 152.211 137.067 152.067 137.344 151.859C137.671 151.572 137.727 151.293 137.687 151.277Z" fill="#AA6550"/>
<path d="M135.971 137.2C138.034 137.654 140.174 137.62 142.221 137.101C144.268 136.582 146.166 135.593 147.763 134.211C149.36 132.829 150.613 131.093 151.421 129.142C152.229 127.191 152.571 125.078 152.418 122.972C156.983 122.748 160.925 119.221 162.736 114.992C164.548 110.762 164.556 106.03 163.997 101.482C163.946 100.408 163.625 99.3653 163.063 98.4492C161.707 96.5659 158.946 96.5819 156.632 96.7814C150.67 97.3001 144.526 97.8826 139.267 100.771C134.008 103.66 129.851 109.398 130.792 115.303C131.255 118.192 132.859 121.033 132.141 123.866C131.606 125.972 129.835 127.68 129.627 129.843C129.594 130.68 129.742 131.514 130.06 132.29C130.378 133.065 130.859 133.762 131.471 134.335C132.696 135.478 134.083 136.433 135.588 137.168" fill="#263238"/>
<path d="M138.182 156.911C140.576 157.294 143.065 158.004 144.43 160.015C145.109 161.023 145.577 162.157 145.806 163.35C146.035 164.543 146.02 165.77 145.763 166.958C147.686 166.862 149.258 168.554 149.992 170.325C151.859 174.89 149.753 180.436 145.866 183.476C144.502 184.538 142.818 185.375 141.078 185.144C139.339 184.913 138.166 183.827 136.977 182.75C134.981 181.054 133.223 179.097 131.75 176.933C130.222 174.858 129.465 172.315 129.611 169.743C129.757 167.17 130.795 164.729 132.548 162.84C134.144 160.941 136.091 158.323 138.134 156.919" fill="#263238"/>
<path d="M121.855 118.495C122.466 118.693 123.121 118.718 123.746 118.567C124.469 118.366 125.142 118.018 125.725 117.545C126.497 116.904 127.196 116.178 127.808 115.383C128.564 114.395 129.521 113.579 130.617 112.989C131.885 112.374 133.402 112.502 134.854 112.638C135.596 112.721 136.346 112.721 137.088 112.638C137.849 112.524 138.578 112.252 139.227 111.84C140.605 110.936 141.709 109.672 142.419 108.185C143.111 106.678 143.701 105.127 144.183 103.54C144.667 102.053 145.293 100.616 146.05 99.2472C147.324 96.878 149.267 94.9356 151.636 93.6612C153.238 92.8274 155.037 92.4493 156.839 92.568C157.495 92.597 158.141 92.7429 158.746 92.9989C158.115 92.863 157.475 92.7723 156.831 92.7276C155.068 92.672 153.322 93.085 151.772 93.9246C149.493 95.2066 147.636 97.1221 146.425 99.4387C145.687 100.793 145.08 102.214 144.614 103.684C144.128 105.291 143.531 106.861 142.826 108.384C142.095 109.935 140.949 111.252 139.514 112.191C138.811 112.612 138.029 112.884 137.216 112.989C136.444 113.069 135.666 113.069 134.894 112.989C133.426 112.837 131.997 112.717 130.832 113.268C129.771 113.838 128.842 114.624 128.103 115.574C127.462 116.366 126.737 117.086 125.94 117.721C125.321 118.196 124.609 118.536 123.85 118.718C123.37 118.836 122.869 118.836 122.389 118.718C122.199 118.675 122.019 118.6 121.855 118.495Z" fill="#455A64"/>
<path d="M115.471 133.266C115.461 133.205 115.461 133.143 115.471 133.082C115.442 132.905 115.442 132.725 115.471 132.548C115.557 131.862 115.751 131.194 116.045 130.569C116.487 129.568 117.035 128.618 117.681 127.736C118.077 127.174 118.512 126.641 118.982 126.14C119.505 125.569 120.11 125.08 120.777 124.688C121.586 124.3 122.47 124.095 123.366 124.088C124.263 124.082 125.15 124.272 125.964 124.648C126.875 125.026 127.729 125.528 128.502 126.14C129.309 126.759 130.179 127.294 131.096 127.736C133.05 128.702 135.241 129.087 137.408 128.845C139.734 128.569 141.859 127.388 143.321 125.557C144.765 123.682 145.108 121.097 146.944 119.445C147.406 119.049 147.952 118.763 148.54 118.607C149.098 118.464 149.672 118.394 150.248 118.399C151.312 118.449 152.379 118.422 153.44 118.319C155.397 118.043 157.257 117.293 158.858 116.133C160.26 115.13 161.416 113.824 162.241 112.311C163.432 110.096 163.912 107.569 163.614 105.073C163.532 104.399 163.398 103.732 163.215 103.078C163.128 102.852 163.062 102.62 163.016 102.383C163.422 103.226 163.692 104.129 163.814 105.057C164.049 106.629 163.968 108.232 163.577 109.773C163.185 111.314 162.491 112.761 161.534 114.031C160.577 115.301 159.377 116.367 158.004 117.168C156.631 117.968 155.111 118.487 153.535 118.695C152.454 118.809 151.366 118.844 150.279 118.798C149.742 118.795 149.205 118.859 148.683 118.99C148.161 119.146 147.681 119.419 147.279 119.788C145.587 121.272 145.228 123.834 143.72 125.837C142.19 127.756 139.965 128.995 137.527 129.284C135.281 129.53 133.012 129.122 130.992 128.111C130.053 127.658 129.165 127.107 128.342 126.467C127.596 125.871 126.772 125.379 125.893 125.007C125.124 124.648 124.287 124.461 123.439 124.461C122.591 124.461 121.753 124.648 120.985 125.007C120.337 125.378 119.748 125.843 119.237 126.387C118.769 126.867 118.332 127.376 117.929 127.911C117.282 128.774 116.723 129.699 116.261 130.673C115.952 131.279 115.735 131.927 115.614 132.596C115.594 132.771 115.594 132.947 115.614 133.122C115.574 133.177 115.526 133.226 115.471 133.266Z" fill="#455A64"/>
<path d="M218.293 106.988C217.94 106.178 217.43 105.445 216.793 104.833C215.572 103.652 213.218 102.583 210.177 102.32C208.653 102.176 206.985 102.176 205.158 102.008C203.201 101.899 201.299 101.321 199.612 100.325C197.851 99.0844 196.326 97.5384 195.111 95.76C193.836 93.8853 192.37 92.1471 190.738 90.573C189.02 89.1103 186.938 88.1397 184.713 87.7641C182.631 87.4134 180.511 87.3383 178.409 87.5406C176.398 87.7002 174.499 88.0114 172.711 88.3386C170.924 88.6658 169.256 88.8813 167.724 89.0169C165.298 89.3104 162.839 89.1889 160.454 88.6578C159.582 88.4589 158.738 88.1533 157.94 87.7481C158.164 87.8029 158.382 87.875 158.595 87.9636C158.855 88.0641 159.122 88.1494 159.393 88.2189C159.755 88.3309 160.122 88.4242 160.494 88.4982C162.86 88.9566 165.285 89.0347 167.676 88.7297C169.2 88.5701 170.868 88.3067 172.639 88.0035C174.411 87.7002 176.326 87.3651 178.361 87.2055C180.489 86.992 182.636 87.0618 184.745 87.4129C187.043 87.8006 189.193 88.8014 190.969 90.3097C192.627 91.9016 194.111 93.6644 195.398 95.5685C196.584 97.3093 198.067 98.8275 199.779 100.053C201.414 101.029 203.258 101.598 205.158 101.713C206.945 101.889 208.629 101.913 210.169 102.072C213.25 102.375 215.644 103.517 216.865 104.769C217.341 105.229 217.733 105.77 218.022 106.365C218.092 106.524 218.153 106.687 218.205 106.852C218.274 106.943 218.304 106.988 218.293 106.988Z" fill="#455A64"/>
<path d="M227.43 126.962C227.43 126.962 227.366 126.962 227.231 127.042C227.034 127.116 226.835 127.18 226.632 127.233C225.851 127.437 225.042 127.51 224.238 127.449C223.65 127.396 223.071 127.27 222.514 127.074C221.859 126.831 221.237 126.507 220.663 126.108C219.289 125.095 218.128 123.82 217.248 122.357C216.242 120.761 215.652 118.75 214.646 116.819C214.15 115.819 213.458 114.929 212.611 114.202C211.674 113.476 210.582 112.979 209.419 112.749C207.025 112.207 204.416 112.43 201.718 112.039C199.613 111.709 197.606 110.923 195.836 109.736C194.066 108.55 192.577 106.991 191.472 105.168C190.789 103.993 190.045 102.853 189.246 101.753C188.463 100.715 187.431 99.8916 186.245 99.359C185.099 98.8749 183.88 98.5837 182.638 98.4972C180.307 98.4376 177.974 98.5389 175.656 98.8004C170.59 99.1902 165.559 97.6923 161.531 94.595C160.654 93.9489 159.851 93.2076 159.137 92.3845C159.197 92.4241 159.254 92.4695 159.305 92.5202L159.76 92.9431C162.521 95.4925 165.912 97.2608 169.583 98.0663C171.564 98.4905 173.597 98.6222 175.616 98.4573C177.948 98.1759 180.298 98.0612 182.646 98.1142C183.934 98.1998 185.199 98.4991 186.389 98.9999C187.648 99.5395 188.748 100.394 189.581 101.482C190.39 102.594 191.141 103.747 191.831 104.937C192.559 106.123 193.454 107.198 194.489 108.129C196.537 109.973 199.076 111.184 201.798 111.616C204.424 112.015 207.057 111.8 209.523 112.358C210.735 112.61 211.871 113.14 212.843 113.907C213.723 114.667 214.44 115.598 214.949 116.644C215.963 118.623 216.545 120.634 217.503 122.19C218.347 123.631 219.467 124.892 220.799 125.901C221.343 126.3 221.936 126.63 222.562 126.882C223.099 127.083 223.66 127.215 224.23 127.273C225.307 127.361 226.391 127.256 227.43 126.962Z" fill="#455A64"/>
<path d="M221.597 176.214C222.207 175.631 222.743 174.974 223.193 174.259C224.298 172.242 224.826 169.958 224.717 167.66C224.696 166.08 224.398 164.517 223.839 163.039C223.526 162.226 223.104 161.458 222.586 160.757C222.024 160.014 221.396 159.322 220.711 158.69C219.322 157.366 217.663 156.185 216.106 154.7C214.409 153.265 213.148 151.382 212.468 149.266C212.212 148.167 212.158 147.032 212.308 145.914C212.436 144.813 212.675 143.768 212.891 142.722C213.119 141.725 213.268 140.711 213.337 139.69C213.394 138.724 213.264 137.757 212.954 136.841C212.297 135.159 211.217 133.674 209.818 132.532C208.604 131.505 207.336 130.543 206.02 129.651C204.06 128.408 202.374 126.779 201.064 124.863C200.733 124.318 200.465 123.737 200.266 123.131C200.201 122.92 200.156 122.704 200.13 122.485C200.377 123.29 200.726 124.059 201.168 124.775C202.51 126.644 204.204 128.233 206.155 129.452C207.494 130.329 208.781 131.283 210.01 132.308C211.466 133.483 212.593 135.014 213.282 136.753C213.611 137.718 213.755 138.736 213.704 139.754C213.634 140.793 213.484 141.825 213.258 142.842C212.835 144.893 212.292 147.063 212.843 149.186C213.498 151.229 214.715 153.045 216.354 154.429C217.878 155.849 219.546 157.046 220.942 158.419C221.641 159.068 222.279 159.778 222.85 160.542C223.38 161.279 223.81 162.084 224.126 162.936C224.689 164.45 224.978 166.052 224.98 167.668C225.068 170.011 224.487 172.33 223.304 174.355C223.113 174.669 222.894 174.965 222.65 175.241C222.487 175.451 222.302 175.643 222.099 175.815C221.946 175.965 221.777 176.099 221.597 176.214Z" fill="#455A64"/>
<path d="M121.591 151.189C121.124 150.717 120.753 150.159 120.498 149.545C119.772 147.883 119.599 146.031 120.003 144.262C120.316 142.958 120.886 141.73 121.679 140.649C122.472 139.567 123.473 138.655 124.624 137.966C125.958 137.117 127.434 136.514 128.981 136.187C130.631 135.86 132.31 135.691 133.992 135.684C137.408 135.612 140.719 135.684 143.488 134.662C145.944 133.765 148.082 132.163 149.633 130.058C150.696 128.651 151.479 127.052 151.939 125.35C152.25 124.137 152.29 123.435 152.338 123.443C152.359 123.609 152.359 123.778 152.338 123.945C152.301 124.431 152.229 124.914 152.123 125.39C151.6 127.565 150.554 129.579 149.076 131.258C147.597 132.936 145.731 134.228 143.64 135.022C140.783 136.099 137.416 136.027 134.016 136.099C132.361 136.107 130.71 136.27 129.085 136.586C127.583 136.899 126.149 137.474 124.847 138.285C122.593 139.618 120.96 141.791 120.307 144.326C119.891 146.04 120.014 147.84 120.658 149.481C120.927 150.073 121.239 150.643 121.591 151.189Z" fill="#455A64"/>
<path d="M151.708 144.757L146.648 155.873C146.648 155.873 155.187 169.846 161.81 174.57C165.64 177.349 170.084 179.162 174.764 179.857C179.445 180.551 184.223 180.107 188.695 178.56C188.695 178.56 202.979 173.278 201.902 148.308C201.902 148.308 192.246 144.709 186.094 144.151C179.941 143.592 166.263 147.343 161.068 146.672C157.909 146.241 154.782 145.601 151.708 144.757Z" fill="#F5F5F5"/>
<path d="M151.62 145.013C149.605 143.925 147.657 142.718 145.787 141.398C143.848 140.178 141.983 138.846 140.201 137.408C142.216 138.495 144.164 139.702 146.034 141.023C147.973 142.242 149.838 143.574 151.62 145.013Z" fill="#263238"/>
<path d="M146.688 155.61C145.517 155.933 144.312 156.123 143.097 156.177C141.897 156.364 140.679 156.418 139.467 156.336C140.639 156.012 141.843 155.82 143.058 155.762C144.258 155.574 145.476 155.523 146.688 155.61Z" fill="#263238"/>
<path d="M196.747 169.814C196.594 169.907 196.431 169.982 196.26 170.038C195.933 170.173 195.462 170.373 194.832 170.612C193.05 171.24 191.222 171.731 189.365 172.081C186.602 172.599 183.789 172.813 180.978 172.719C177.537 172.599 174.127 172.025 170.836 171.011C169.132 170.483 167.468 169.835 165.856 169.072C164.365 168.352 162.913 167.553 161.507 166.678C158.81 165.018 156.488 163.367 154.525 162.026C152.562 160.685 150.942 159.632 149.801 158.922L148.492 158.124C148.33 158.043 148.18 157.941 148.045 157.82C148.214 157.879 148.377 157.954 148.532 158.044C148.843 158.203 149.33 158.443 149.888 158.778C151.046 159.432 152.697 160.454 154.676 161.771C156.655 163.087 159.002 164.715 161.691 166.343C163.039 167.141 164.484 167.939 166.024 168.697C167.622 169.446 169.27 170.084 170.956 170.604C176.895 172.44 183.184 172.844 189.31 171.785C191.16 171.461 192.986 171.013 194.776 170.445L196.228 169.95C196.396 169.888 196.57 169.843 196.747 169.814Z" fill="#E0E0E0"/>
<path d="M200.346 159.073C200.188 159.124 200.025 159.153 199.859 159.161L198.439 159.337C197.202 159.472 195.414 159.64 193.204 159.808C187.433 160.272 181.634 160.272 175.863 159.808C170.08 159.34 164.388 158.083 158.946 156.073C157.309 155.454 155.71 154.74 154.158 153.934C153.599 153.663 153.184 153.408 152.897 153.248C152.75 153.175 152.611 153.086 152.482 152.985C152.641 153.028 152.794 153.092 152.937 153.176C153.24 153.312 153.663 153.535 154.23 153.791C155.347 154.325 156.983 155.043 159.065 155.802C164.505 157.72 170.17 158.927 175.919 159.393C181.671 159.845 187.447 159.883 193.204 159.504L198.439 159.161L199.867 159.073C200.026 159.057 200.187 159.057 200.346 159.073Z" fill="#263238"/>
<path d="M199.684 152.825C195.039 151.309 190.347 149.809 185.479 149.386C180.611 148.963 175.959 149.601 171.203 149.904C166.447 150.208 161.14 149.904 156.687 148.213H155.49C169.085 155.336 184.832 157.187 199.708 153.408C199.835 153.408 199.987 153.32 200.019 153.192C200.051 153.064 199.843 152.881 199.684 152.825Z" fill="#E0E0E0"/>
<path d="M201.575 152.977C201.405 152.956 201.237 152.921 201.072 152.873L199.66 152.522C198.431 152.211 196.659 151.724 194.457 151.229C191.888 150.609 189.284 150.14 186.66 149.825C183.441 149.496 180.2 149.442 176.972 149.665C173.525 149.848 170.229 150.088 167.229 150.04C164.562 150.039 161.904 149.736 159.305 149.138C157.554 148.727 155.863 148.096 154.269 147.263C153.711 146.952 153.288 146.704 153.017 146.513C152.868 146.427 152.729 146.325 152.602 146.21C152.602 146.17 153.208 146.561 154.341 147.119C155.948 147.888 157.637 148.469 159.377 148.851C161.957 149.402 164.59 149.67 167.229 149.649C170.213 149.649 173.493 149.426 176.949 149.242C180.198 149.022 183.461 149.086 186.7 149.433C189.339 149.767 191.954 150.268 194.528 150.934C196.731 151.484 198.518 151.995 199.7 152.354L201.096 152.785C201.263 152.829 201.424 152.893 201.575 152.977Z" fill="#263238"/>
<path d="M151.939 155.985C156.105 158.379 160.191 161.005 164.755 162.441C173.822 165.371 183.342 166.647 192.861 166.207C193.595 166.207 194.568 166.335 194.648 167.061C194.728 167.788 193.986 168.115 193.355 168.298C191.273 168.856 189.127 169.145 186.971 169.16C180.587 169.426 174.209 168.489 168.171 166.399C162.114 164.299 156.644 160.79 152.211 156.161" fill="#E0E0E0"/>
<path d="M190.722 165.409C189.975 165.668 189.202 165.842 188.416 165.928C186.533 166.208 184.63 166.331 182.726 166.295C180.821 166.258 178.923 166.057 177.052 165.697C176.271 165.579 175.506 165.376 174.77 165.09C175.555 165.148 176.336 165.255 177.108 165.409C180.839 165.962 184.626 166.037 188.376 165.633C189.152 165.509 189.936 165.434 190.722 165.409Z" fill="#263238"/>
<path d="M113.523 311.97C113.667 312.233 116.875 314.723 116.875 314.723L122.756 312.601L130.098 316.351C130.098 316.351 136.689 317.045 136.745 319.423C136.801 321.801 140.663 333.484 135.652 341.48C130.641 349.476 127.089 352.125 127.089 352.125L109.278 335.487L103.804 334.362L113.523 311.97Z" fill="#B78876"/>
<path d="M364.199 364.439C364.199 364.55 289.379 364.646 197.114 364.646C104.849 364.646 30.0128 364.55 30.0128 364.439C30.0128 364.327 104.809 364.231 197.114 364.231C289.419 364.231 364.199 364.319 364.199 364.439Z" fill="#263238"/>
<path d="M290.017 44.9434C282.615 44.9409 275.372 47.0923 269.171 51.1354C262.97 55.1784 258.08 60.9384 255.096 67.7128C252.112 74.4873 251.164 81.9836 252.367 89.2876C253.57 96.5916 256.873 103.388 261.872 108.847C262.023 109.015 262.191 109.174 262.351 109.342L255.113 127.895L278.255 119.748L278.311 119.413C281.997 120.594 285.876 122.11 289.953 122.11C311.021 122.11 328.146 104.163 328.146 83.0878C328.146 72.974 324.129 63.2742 316.979 56.1212C309.829 48.9682 300.131 44.9476 290.017 44.9434Z" fill="white"/>
<path d="M289.977 45.4861C290.205 45.4632 290.435 45.4632 290.664 45.4861L292.667 45.5419C293.753 45.5599 294.837 45.6666 295.906 45.8611C296.545 45.9569 297.239 46.0207 297.973 46.1723L300.271 46.7389C305.991 48.303 311.273 51.1641 315.707 55.1003C320.141 59.0364 323.609 63.9416 325.84 69.435C328.072 74.9284 329.007 80.8622 328.574 86.7757C328.141 92.6892 326.35 98.4232 323.342 103.533C319.06 110.794 312.534 116.468 304.748 119.7C300.648 121.392 296.284 122.354 291.853 122.541C287.292 122.822 282.719 122.253 278.366 120.865L277.967 120.737H278.279L255.735 128.478L254.817 128.797L255.113 127.872L260.946 109.119L261.042 109.565C257.039 105.09 254.138 99.7413 252.568 93.946C250.998 88.1507 250.804 82.0688 252 76.1851C252.991 71.2129 254.966 66.4891 257.81 62.2919C260.251 58.7157 263.269 55.5688 266.74 52.9793C268.228 51.8645 269.791 50.8514 271.416 49.9469C272.878 49.1724 274.383 48.4823 275.924 47.8801C277.245 47.3567 278.599 46.9247 279.978 46.5873C281.12 46.2666 282.283 46.024 283.458 45.8611C284.511 45.7255 285.445 45.5659 286.251 45.494L288.301 45.4302H289.554C289.695 45.4128 289.837 45.4128 289.977 45.4302C289.839 45.4682 289.697 45.4896 289.554 45.494L288.309 45.5978L286.275 45.7334C285.477 45.8292 284.551 46.0127 283.513 46.1723C282.353 46.3605 281.207 46.6272 280.082 46.9703C278.722 47.3213 277.388 47.7694 276.092 48.311C274.587 48.9192 273.117 49.6092 271.687 50.3778C270.094 51.3047 268.563 52.3364 267.107 53.4661C263.718 56.0465 260.779 59.1688 258.408 62.7069C255.66 66.8459 253.761 71.4897 252.822 76.3687C251.681 82.1182 251.893 88.0545 253.441 93.7081C254.99 99.3617 257.832 104.578 261.744 108.943L261.92 109.143L261.84 109.398C259.98 115.415 258.033 121.695 256.03 128.183L255.4 127.576L277.935 119.756L278.095 119.7L278.255 119.748L278.646 119.876C282.888 121.227 287.344 121.781 291.789 121.512C296.106 121.33 300.359 120.398 304.357 118.758C311.964 115.619 318.348 110.097 322.552 103.022C327.468 94.6722 329.02 84.7632 326.892 75.3101C324.763 65.857 319.114 57.5697 311.092 52.1334C307.742 49.8809 304.054 48.1758 300.168 47.0821L297.901 46.4756C297.183 46.308 296.497 46.2362 295.867 46.1165C294.814 45.9032 293.747 45.7672 292.675 45.7095L290.68 45.5579C290.444 45.5574 290.208 45.5334 289.977 45.4861Z" fill="#263238"/>
<path d="M267.314 86.575L273.243 80.6458L284.687 90.8124L307.134 69.2025L312.648 75.1396L283.841 102.248L267.314 86.575Z" fill="#5200D9"/>
<path d="M311.531 324.786C309.624 327.395 306.033 326.438 304.397 324.786C302.761 323.134 302.107 320.796 301.516 318.522C300.16 313.391 298.795 307.996 300 302.825C300.303 301.256 301.029 299.799 302.099 298.612C302.64 298.027 303.325 297.596 304.086 297.36C304.846 297.125 305.656 297.094 306.432 297.271C308.243 297.79 309.329 299.601 310.111 301.309C312.406 306.362 313.546 311.863 313.446 317.412C313.399 319.99 313.039 322.687 311.531 324.786Z" fill="#5200D9"/>
<g opacity="0.2">
<path d="M311.531 324.786C309.624 327.395 306.033 326.438 304.397 324.786C302.761 323.134 302.107 320.796 301.516 318.522C300.16 313.391 298.795 307.996 300 302.825C300.303 301.256 301.029 299.799 302.099 298.612C302.64 298.027 303.325 297.596 304.086 297.36C304.846 297.125 305.656 297.094 306.432 297.271C308.243 297.79 309.329 299.601 310.111 301.309C312.406 306.362 313.546 311.863 313.446 317.412C313.399 319.99 313.039 322.687 311.531 324.786Z" fill="black"/>
</g>
<path d="M304.293 338.017C301.218 336.488 297.733 335.984 294.35 336.58C292.531 336.844 290.632 337.378 289.371 338.671C288.11 339.964 287.823 342.39 289.211 343.587C290.109 344.224 291.201 344.529 292.299 344.449C294.941 344.449 297.885 344.074 299.944 345.709C301.125 346.635 301.891 348.159 303.32 348.638C304.037 348.819 304.793 348.761 305.475 348.473C306.156 348.185 306.724 347.683 307.094 347.042C307.804 345.734 307.987 344.204 307.605 342.765C307.455 341.772 307.078 340.828 306.504 340.004C305.929 339.181 305.173 338.501 304.293 338.017Z" fill="#5200D9"/>
<path d="M316.543 328.664C314.58 326.23 314.276 322.743 315.234 319.767C316.319 316.815 318.197 314.22 320.66 312.265C323.458 309.88 326.695 308.064 330.188 306.919C331.542 306.408 332.99 306.196 334.434 306.296C335.155 306.355 335.85 306.588 336.461 306.976C337.071 307.364 337.578 307.895 337.937 308.523C338.887 310.43 337.881 312.696 336.82 314.548C334.938 317.799 332.804 320.897 330.436 323.812C328.537 326.206 326.358 328.473 323.517 329.486C320.676 330.5 317.74 330.284 316.287 328.321" fill="#5200D9"/>
<path d="M310.781 364.686C310.69 364.291 310.641 363.887 310.637 363.481C310.574 362.603 310.486 361.502 310.39 360.185C310.264 358.566 310.053 356.955 309.76 355.357C309.382 353.408 308.848 351.492 308.164 349.628C307.487 347.768 306.546 346.016 305.371 344.425C304.42 343.124 303.19 342.052 301.772 341.289C300.808 340.787 299.771 340.439 298.699 340.259C298.295 340.233 297.894 340.166 297.502 340.06C297.908 340.016 298.317 340.016 298.723 340.06C299.832 340.174 300.913 340.481 301.915 340.969C303.412 341.728 304.714 342.82 305.722 344.161C306.941 345.781 307.914 347.572 308.61 349.476C309.31 351.365 309.844 353.312 310.206 355.293C310.484 356.912 310.662 358.545 310.741 360.185C310.813 361.582 310.829 362.715 310.829 363.497C310.852 363.894 310.836 364.292 310.781 364.686Z" fill="#263238"/>
<path d="M310.605 362.18C310.583 361.995 310.583 361.807 310.605 361.622C310.605 361.199 310.605 360.672 310.645 360.026C310.645 358.637 310.725 356.634 310.701 354.152C310.701 349.197 310.414 342.35 309.752 334.817C309.089 327.284 308.156 320.493 307.246 315.625C307.03 314.404 306.815 313.303 306.615 312.337C306.416 311.372 306.256 310.542 306.097 309.863C305.937 309.185 305.849 308.714 305.754 308.307C305.704 308.128 305.677 307.943 305.674 307.757C305.757 307.924 305.819 308.101 305.857 308.283C305.969 308.682 306.113 309.193 306.28 309.823C306.448 310.454 306.671 311.316 306.887 312.281C307.102 313.247 307.358 314.34 307.589 315.553C308.82 321.909 309.707 328.326 310.246 334.777C310.909 342.326 311.132 349.189 311.044 354.152C311.044 356.634 310.925 358.645 310.829 360.034C310.773 360.68 310.733 361.207 310.693 361.63C310.692 361.817 310.663 362.002 310.605 362.18Z" fill="#263238"/>
<path d="M310.869 348.949C310.837 348.393 310.853 347.835 310.917 347.282C311.042 345.769 311.245 344.264 311.523 342.773C311.934 340.561 312.467 338.374 313.119 336.221C313.906 333.58 314.882 330.998 316.04 328.497C318.05 323.884 320.884 319.676 324.403 316.08C325.013 315.465 325.66 314.89 326.342 314.356C326.645 314.117 326.909 313.869 327.14 313.686L327.89 313.191C328.343 312.864 328.82 312.573 329.319 312.321C327.672 313.553 326.102 314.886 324.618 316.311C321.218 319.945 318.46 324.13 316.463 328.688C315.344 331.178 314.393 333.74 313.614 336.357C312.816 338.751 312.313 340.977 311.906 342.845C311.499 344.712 311.292 346.244 311.148 347.305C311.099 347.86 311.005 348.41 310.869 348.949Z" fill="#263238"/>
</svg>
